<?xml version="1.0" encoding="UTF-8"?>
<!-- Generated by Pixelmator Pro 3.8 -->
<svg width="830" height="830" viewBox="0 0 830 830" xmlns="http://www.w3.org/2000/svg">
    <g id="Gruppo">
        <path id="Percorso" fill="#000000" stroke="none" d="M 338.407928 -280.213989 C 249.75705 -271.473755 167.973465 -247.750366 83.692696 -206.546387 C -5.582438 -162.845276 -74.255676 -112.901062 -137.934464 -45.47644 C -229.706833 50.666016 -257.176147 110.598938 -224.088135 142.438416 C -191.624435 172.404846 -152.917694 161.16748 -122.326904 112.471924 C -96.106232 70.643616 -14.322674 -10.515503 36.87009 -46.100769 C 100.548882 -90.426208 131.139633 -107.28241 189.824051 -129.757202 C 271.607574 -160.972412 337.78363 -170.336975 442.666321 -166.591064 C 546.924744 -162.845276 593.747375 -151.60791 685.519775 -108.531006 C 787.281006 -61.084045 854.705627 -6.145447 936.489197 94.367188 C 987.057617 157.42157 1005.162354 168.659119 1031.383057 155.548706 C 1057.60376 141.814087 1066.968262 129.328003 1066.968262 108.726074 C 1066.968262 73.765259 1040.123291 32.561218 965.83136 -46.725037 C 865.318726 -154.105042 729.220947 -232.1427 585.007141 -264.606567 C 547.549011 -273.346802 418.318573 -288.329956 402.08667 -286.457031 C 398.96521 -285.832764 370.247345 -282.711304 338.407928 -280.213989 Z"/>
        <path id="path1" fill="#000000" stroke="none" d="M 380.236176 4.467651 C 375.24176 6.964783 347.148163 23.820984 318.430206 43.174316 C 289.088043 62.52771 260.994446 80.632446 256.000031 84.378357 C 201.061462 119.96344 84.941353 200.498474 65.587929 216.730347 C 15.643826 258.558533 18.141031 244.199646 18.141031 502.660614 C 18.141031 720.541931 18.765324 734.900879 30.627058 753.629944 C 54.974819 793.585327 51.853355 792.960999 287.215179 797.331116 C 405.208221 799.204041 560.659363 798.579712 632.454163 796.082458 L 762.933167 791.712341 L 785.408142 771.110413 L 807.882935 750.508484 L 809.755859 511.400848 L 811.628723 272.917542 L 796.02124 249.19397 C 774.170593 216.106079 492.610504 20.699524 478.875854 28.815491 C 475.130035 31.312622 473.881439 30.064087 475.754333 26.942627 C 485.743164 10.710693 410.202637 -6.769775 380.236176 4.467651 Z M 485.118866 181.145081 C 523.825562 198.001282 556.289246 232.962219 570.023926 273.541809 C 588.128662 325.983093 581.261414 343.463562 541.930298 343.463562 C 513.212463 343.463562 498.853516 330.353271 498.853516 304.756836 C 498.853516 277.287537 458.898132 239.829468 425.81015 236.083679 C 392.722137 232.337769 363.379974 239.829468 344.650909 257.309937 C 317.181641 282.906311 311.562927 301.635376 311.562927 364.065643 C 311.562927 420.252808 312.187225 423.374268 325.297577 427.120087 C 333.413513 428.992981 399.589508 430.241547 472.632782 430.241547 C 588.752991 429.617279 607.481995 430.865845 616.22229 439.606079 C 625.586792 448.346313 626.835388 466.45108 626.835388 561.344971 C 626.835388 646.25 624.962524 674.967896 618.095154 682.459534 C 610.603577 691.824097 588.128662 693.072632 407.705444 693.072632 C 232.900864 693.072632 204.807281 691.824097 196.69133 683.083862 C 188.57547 674.967896 186.702515 654.990234 186.702515 562.593506 C 186.702515 443.976196 189.199753 432.7388 217.917633 428.992981 C 233.525162 426.495728 233.525162 425.871429 236.646698 349.082336 C 239.768234 268.547302 244.138351 256.06134 279.723511 214.233154 C 292.833862 198.625549 334.662109 175.526306 363.379974 168.034851 C 394.595093 159.918884 449.53363 166.161804 485.118866 181.145081 Z"/>
        <path id="path2" fill="#000000" stroke="none" d="M 368.37439 497.04184 C 352.142578 517.64386 352.142578 530.754211 367.750092 551.35614 C 377.114624 563.217896 380.236176 576.328186 380.236176 603.797485 C 380.236176 638.134155 381.484741 641.879883 397.092285 648.747253 C 420.815735 659.360352 431.428925 646.874329 433.301788 603.173218 C 433.926086 583.195557 438.296204 563.217896 443.914917 556.974854 C 459.522522 539.494446 462.019684 524.511108 452.030853 506.406372 C 442.042023 485.804443 431.428925 480.810028 402.08667 480.810028 C 387.103455 480.810028 377.738922 485.180145 368.37439 497.04184 Z"/>
        <path id="path3" fill="#000000" stroke="none" d="M -221.590927 814.811523 C -260.297638 850.39679 -232.828369 905.959656 -121.078316 1018.958313 C 44.985996 1187.519775 284.093628 1267.43042 521.952698 1233.71814 C 737.961182 1203.751709 942.107849 1072.648315 1056.355225 891.600708 C 1081.327148 851.645386 1058.228027 799.204041 1015.775452 799.204041 C 990.803467 799.828308 978.94165 807.944275 949.599487 847.275269 C 884.047791 934.053223 814.750305 997.731995 737.961182 1040.18457 C 683.022644 1071.399658 599.990417 1103.239014 543.178894 1115.10083 C 467.014099 1131.332642 335.910675 1128.211182 260.370148 1108.857788 C 110.537697 1070.775391 -18.068501 982.748779 -116.708199 851.645386 C -135.437256 826.67334 -154.790604 804.822693 -160.409348 802.949829 C -181.011276 794.833923 -205.359085 799.828308 -221.590927 814.811523 Z"/>
    </g>
</svg>
