<?xml version="1.0" encoding="UTF-8"?>
<!-- Generated by Pixelmator Pro 3.8 -->
<svg width="800" height="800" viewBox="0 0 800 800" xmlns="http://www.w3.org/2000/svg">
    <g id="Gruppo">
        <path id="Percorso" fill="#000000" stroke="none" d="M 323.407928 -280.213989 C 234.75705 -271.473755 152.973465 -247.750366 68.692696 -206.546326 C -20.582438 -162.845276 -89.255676 -112.901062 -152.934464 -45.47644 C -244.706833 50.666016 -272.176147 110.598938 -239.088135 142.438416 C -206.624435 172.404846 -167.917694 161.16748 -137.326904 112.471924 C -111.106232 70.643616 -29.322674 -10.515503 21.870089 -46.100769 C 85.548882 -90.426208 116.139633 -107.28241 174.824051 -129.757202 C 256.607574 -160.972412 322.78363 -170.336975 427.666321 -166.591064 C 531.924744 -162.845276 578.747375 -151.60791 670.519775 -108.531006 C 772.281006 -61.084045 839.705627 -6.145447 921.489197 94.367188 C 972.057617 157.42157 990.162354 168.659119 1016.383057 155.548706 C 1042.60376 141.814087 1051.968262 129.328003 1051.968262 108.726074 C 1051.968262 73.765259 1025.123291 32.561218 950.83136 -46.725037 C 850.318726 -154.105042 714.220947 -232.1427 570.007141 -264.606567 C 532.549011 -273.346802 403.318573 -288.329956 387.08667 -286.457031 C 383.96521 -285.832764 355.247345 -282.711304 323.407928 -280.213989 Z"/>
        <path id="path1" fill="#000000" stroke="none" d="M 365.236176 4.467651 C 360.24176 6.964783 332.148163 23.820984 303.430206 43.174316 C 274.088043 62.52771 245.994461 80.632446 241.000046 84.378357 C 186.061462 119.96344 69.941353 200.498474 50.587933 216.730347 C 0.643826 258.558533 3.141031 244.199646 3.141031 502.660614 C 3.141031 720.541931 3.765323 734.900879 15.627058 753.629944 C 39.974819 793.585327 36.853355 792.960999 272.215179 797.331116 C 390.208221 799.204041 545.659363 798.579712 617.454163 796.082458 L 747.933167 791.712341 L 770.408142 771.110413 L 792.882935 750.508484 L 794.755859 511.400848 L 796.628723 272.917542 L 781.02124 249.19397 C 759.170593 216.106079 477.610504 20.699524 463.875854 28.815491 C 460.130035 31.312622 458.881439 30.064087 460.754333 26.942627 C 470.743164 10.710693 395.202637 -6.769775 365.236176 4.467651 Z M 470.118866 181.145081 C 508.825562 198.001282 541.289246 232.962219 555.023926 273.541809 C 573.128662 325.983093 566.261414 343.463562 526.930298 343.463562 C 498.212433 343.463562 483.853516 330.353271 483.853516 304.756866 C 483.853516 277.287537 443.898132 239.829468 410.81015 236.083679 C 377.722137 232.337769 348.379974 239.829468 329.650909 257.309937 C 302.181641 282.906311 296.562927 301.635406 296.562927 364.065643 C 296.562927 420.252808 297.187225 423.374268 310.297577 427.120087 C 318.413513 428.992981 384.589508 430.241547 457.632782 430.241547 C 573.752991 429.617279 592.481995 430.865845 601.22229 439.606079 C 610.586792 448.346313 611.835388 466.45108 611.835388 561.344971 C 611.835388 646.25 609.962524 674.967896 603.095154 682.459534 C 595.603577 691.824097 573.128662 693.072632 392.705444 693.072632 C 217.900864 693.072632 189.807281 691.824097 181.69133 683.083862 C 173.57547 674.967896 171.702515 654.990234 171.702515 562.593567 C 171.702515 443.976196 174.199753 432.7388 202.917633 428.992981 C 218.525162 426.495728 218.525162 425.871429 221.646698 349.082336 C 224.768234 268.547302 229.138351 256.06134 264.723511 214.233154 C 277.833862 198.625549 319.662109 175.526306 348.379974 168.034851 C 379.595093 159.918884 434.53363 166.161804 470.118866 181.145081 Z"/>
        <path id="path2" fill="#000000" stroke="none" d="M 353.37439 497.04184 C 337.142578 517.64386 337.142578 530.754211 352.750092 551.35614 C 362.114624 563.217896 365.236176 576.328186 365.236176 603.797485 C 365.236176 638.134155 366.484741 641.879883 382.092285 648.747253 C 405.815735 659.360352 416.428925 646.874329 418.301788 603.173218 C 418.926086 583.195557 423.296204 563.217896 428.914917 556.974854 C 444.522522 539.494446 447.019684 524.511108 437.030853 506.406372 C 427.042023 485.804443 416.428925 480.810028 387.08667 480.810028 C 372.103455 480.810028 362.738922 485.180145 353.37439 497.04184 Z"/>
        <path id="path3" fill="#000000" stroke="none" d="M -236.590927 814.811523 C -275.297638 850.39679 -247.828369 905.959656 -136.078323 1018.958313 C 29.985998 1187.519775 269.093628 1267.43042 506.952667 1233.71814 C 722.961182 1203.751709 927.107849 1072.648193 1041.355225 891.600708 C 1066.327148 851.645386 1043.228027 799.204041 1000.775452 799.204041 C 975.803467 799.828308 963.94165 807.944275 934.599487 847.275269 C 869.047791 934.053223 799.750305 997.731995 722.961182 1040.18457 C 668.022644 1071.399658 584.990417 1103.239014 528.178894 1115.10083 C 452.014099 1131.332642 320.910675 1128.211182 245.370163 1108.857788 C 95.537697 1070.775391 -33.068501 982.748779 -131.708206 851.645386 C -150.437256 826.67334 -169.790604 804.822693 -175.409348 802.949829 C -196.011276 794.833923 -220.359085 799.828308 -236.590927 814.811523 Z"/>
    </g>
</svg>
