<?xml version="1.0" encoding="UTF-8"?>
<!-- Generated by Pixelmator Pro 3.8 -->
<svg width="640" height="640" viewBox="0 0 640 640" xmlns="http://www.w3.org/2000/svg">
    <g id="Gruppo">
        <path id="Percorso" fill="#606060" stroke="none" d="M 0 320 L 0 640 L 320 640 L 640 640 L 640 320 L 640 0 L 320 0 L 0 0 L 0 320 Z M 344 68 C 365.733337 70.400024 368.266663 70.799988 375.066681 72.133362 C 386.666656 74.266663 413.466675 83.866638 429.333344 91.466675 C 465.200012 108.666687 489.866669 128.133331 517.06665 160.666656 C 536.533325 184 541.06665 195.733337 534.666687 206.399994 C 528.266663 216.933319 509.600006 217.333344 503.200012 207.066681 C 490.266663 186.666656 468 162.133331 451.600006 150.266663 C 447.333344 147.200012 441.600006 142.933319 438.933319 140.799988 C 432.533325 135.866669 399.600006 120 386.666656 115.599976 C 365.600006 108.533325 348.266663 106 320 106 C 291.733337 106 274.399994 108.533325 253.333328 115.599976 C 240.399994 120 207.46666 135.866669 201.066666 140.799988 C 198.399994 142.933319 192.666672 147.200012 188.399994 150.266663 C 172 162.133331 149.733337 186.666656 136.800003 207.066681 C 130.399994 217.333344 111.73333 216.933319 105.333336 206.399994 C 99.066666 196.133331 102.800003 185.866669 120.666664 163.466675 C 146.399994 131.066681 179.866669 104.93335 216 88.93335 C 232.133331 81.866638 255.733337 73.733337 262.933319 72.799988 C 265.733337 72.533325 268.399994 71.866638 269.066681 71.599976 C 269.600006 71.200012 273.866669 70.533325 278.666656 70 C 283.333344 69.466675 289.600006 68.666687 292.533325 68.133362 C 301.466675 66.533325 330.399994 66.400024 344 68 Z M 332.133331 162.799988 C 334.666656 163.733337 349.733337 173.066681 365.733337 183.866669 C 450.266663 240.666656 443.733337 235.733337 448.666656 246 L 452 252.799988 L 452.133331 328.399994 C 452.133331 403.466675 452.133331 404.133331 449.333344 410.133331 C 446.133331 416.666687 439.866669 422 432.399994 424.799988 C 424.933319 427.333313 215.066666 427.333313 207.600006 424.799988 C 200.133331 422 193.866669 416.666687 190.666672 410.133331 C 187.866669 404.133331 187.866669 403.466675 187.866669 328.399994 L 188 252.799988 L 191.333328 246 C 196.266663 235.733337 189.333328 240.933319 274.266663 183.866669 C 290.266663 173.066681 305.200012 163.733337 307.333344 162.933319 C 312.799988 161.066681 326.533325 160.933319 332.133331 162.799988 Z M 130 427.200012 C 132.399994 428.266663 135.46666 430.799988 136.800003 432.93335 C 149.733337 453.333313 172 477.866669 188.399994 489.733337 C 192.666672 492.799988 198.399994 497.06665 201.066666 499.200012 C 203.733337 501.200012 214.399994 507.06665 224.666672 512 C 246.933334 522.799988 263.066681 528.533325 275.333344 530.133301 C 277.600006 530.400024 282.666656 531.333313 286.666656 532.266663 C 291.200012 533.333313 303.733337 534 320 534 C 348.399994 533.866699 366.133331 531.333313 386.666656 524.400024 C 399.600006 520 432.533325 504.133331 438.933319 499.200012 C 441.600006 497.06665 447.333344 492.799988 451.600006 489.733337 C 468 477.866669 489.733337 453.866669 503.066681 432.93335 C 509.866669 422.266663 529.466675 423.200012 535.333313 434.533325 C 540.400024 444.399994 536.666687 454.666687 521.200012 474.399994 C 497.733337 504.266663 465.866669 530.533325 434.399994 546.133301 C 415.333344 555.733337 376.933319 569.333313 374.933319 567.333313 C 374.666656 567.06665 373.333344 567.333313 372.133331 568 C 370.799988 568.666687 366 569.599976 361.200012 570 C 356.533325 570.533325 350.266663 571.333313 347.333344 571.866699 C 338.533325 573.466675 309.733337 573.599976 296 572 C 274.133331 569.466675 271.733337 569.200012 264.933319 567.866699 C 253.46666 565.733337 227.333328 556.400024 211.066666 548.666687 C 175.066666 531.599976 150.266663 512 122.933334 479.333313 C 108.666664 462.399994 102.666664 451.733337 102.666664 443.866669 C 102.666664 429.733337 116.133331 421.466675 130 427.200012 Z"/>
    </g>
</svg>
