<?xml version="1.0" encoding="UTF-8"?>
<!-- Generated by Pixelmator Pro 3.8 -->
<svg width="512" height="512" viewBox="0 0 512 512" xmlns="http://www.w3.org/2000/svg">
    <g id="Gruppo">
        <path id="Percorso" fill="#000000" stroke="none" d="M 88.490562 0.883118 C 88.269768 1.413055 87.386635 1.545471 84.516434 1.545471 C 81.602066 1.545471 80.718933 1.677948 80.542305 2.207825 C 80.321518 2.693573 79.526695 2.870178 77.230537 2.870178 C 74.890213 2.870178 74.09539 3.046814 73.918762 3.532532 C 73.742126 3.974121 73.035614 4.194885 71.931702 4.194885 C 70.783615 4.194885 70.077103 4.41571 69.944633 4.857239 C 69.767998 5.298828 69.061493 5.519592 67.957573 5.519592 C 66.809486 5.519592 66.102974 5.740417 65.970505 6.181976 C 65.793877 6.623535 65.087364 6.84433 64.027603 6.84433 C 62.967831 6.84433 62.261318 7.065125 62.084694 7.506683 C 61.952225 7.859924 61.334026 8.169037 60.715828 8.169037 C 60.09763 8.169037 59.479431 8.478119 59.346966 8.83139 C 59.17033 9.184631 58.596287 9.493744 58.022255 9.493744 C 57.404057 9.493744 56.830013 9.802826 56.697548 10.156097 C 56.520912 10.509338 55.991035 10.818451 55.416992 10.818451 C 54.887108 10.818451 54.180595 11.127533 53.871494 11.480804 C 53.562401 11.834045 52.988358 12.143158 52.546783 12.143158 C 52.105221 12.143158 51.663647 12.452271 51.487022 12.805511 C 51.354553 13.158752 50.780514 13.467865 50.162315 13.467865 C 49.499958 13.467865 48.660969 13.997772 47.998615 14.792572 C 47.380428 15.499115 46.49728 16.117279 46.055717 16.117279 C 45.614147 16.161469 44.775166 16.735474 44.156967 17.441986 C 43.582924 18.192688 42.655624 18.766693 42.125748 18.766693 C 41.551704 18.766693 40.447777 19.561523 39.343849 20.753754 C 38.328247 21.857697 37.180164 22.740814 36.73859 22.740814 C 35.767139 22.740814 22.520052 35.987915 22.520052 36.959381 C 22.520052 37.40094 21.636915 38.549042 20.532988 39.564636 C 19.42906 40.580261 18.545925 41.772491 18.545925 42.258209 C 18.545925 42.743927 17.971884 43.627075 17.221216 44.24527 C 16.514706 44.819336 15.896507 45.746613 15.896507 46.23233 C 15.896507 46.67392 15.322465 47.601196 14.571798 48.219391 C 13.821131 48.837616 13.247089 49.720734 13.247089 50.338928 C 13.247089 50.868805 12.937995 51.442871 12.584735 51.619507 C 12.231474 51.751984 11.92238 52.325989 11.92238 52.944214 C 11.92238 53.518219 11.613286 54.092285 11.260026 54.268921 C 10.906765 54.401398 10.597672 54.975433 10.597672 55.593628 C 10.597672 56.167664 10.288577 56.741699 9.935317 56.918335 C 9.582056 57.050812 9.272963 57.668976 9.272963 58.287201 C 9.272963 58.905396 8.963863 59.52356 8.610608 59.656036 C 8.257353 59.832672 7.948254 60.362579 7.948254 60.936615 C 7.948254 61.51062 7.639154 62.040558 7.285899 62.217163 C 6.844331 62.34964 6.623545 63.056152 6.623545 64.204224 C 6.623545 65.308136 6.402758 66.014679 5.96119 66.191315 C 5.519622 66.323792 5.298836 67.030273 5.298836 68.178375 C 5.298836 69.282257 5.078049 69.9888 4.636481 70.165436 C 4.194913 70.297913 3.974127 71.004395 3.974127 72.152496 C 3.974127 73.256378 3.75334 73.962921 3.311772 74.139557 C 2.826048 74.316193 2.649418 75.111023 2.649418 77.451324 C 2.649418 79.747498 2.472788 80.542297 1.987063 80.763092 C 1.457178 80.939728 1.324709 81.822845 1.324709 84.737213 C 1.324709 87.607422 1.19224 88.49054 0.662354 88.711365 C 0.088313 88.932129 -0 107.919617 -0 256.110382 C -0 404.301147 0.088313 423.288666 0.662354 423.50943 C 1.19224 423.730225 1.324709 424.613373 1.324709 427.483582 C 1.324709 430.397949 1.457178 431.281067 1.987063 431.457703 C 2.472788 431.678467 2.649418 432.473297 2.649418 434.76947 C 2.649418 437.109802 2.826048 437.904602 3.311772 438.081238 C 3.75334 438.257874 3.974127 438.964386 3.974127 440.068298 C 3.974127 441.21637 4.194913 441.922913 4.636481 442.055359 C 5.078049 442.231995 5.298836 442.938507 5.298836 444.042419 C 5.298836 445.190521 5.519622 445.897034 5.96119 446.02948 C 6.402758 446.206116 6.623545 446.912628 6.623545 448.016541 C 6.623545 449.164642 6.844331 449.871155 7.285899 450.003601 C 7.639154 450.180237 7.948254 450.754303 7.948254 451.328339 C 7.948254 451.946533 8.257353 452.520569 8.610608 452.653046 C 8.963863 452.829681 9.272963 453.403717 9.272963 453.977753 C 9.272963 454.595947 9.582056 455.169983 9.935317 455.30246 C 10.288577 455.479095 10.597672 456.053131 10.597672 456.627167 C 10.597672 457.245361 10.906765 457.819397 11.260026 457.951874 C 11.613286 458.12851 11.92238 458.702545 11.92238 459.276581 C 11.92238 459.894775 12.231474 460.468811 12.584735 460.601288 C 12.937995 460.777924 13.247089 461.351959 13.247089 461.881836 C 13.247089 462.500031 13.821131 463.383179 14.571798 464.001373 C 15.278309 464.619568 15.896507 465.546875 15.896507 465.988464 C 15.896507 466.474182 16.514706 467.401459 17.221216 467.975525 C 17.971884 468.593689 18.545925 469.476837 18.545925 469.962585 C 18.545925 470.448303 19.42906 471.640533 20.532988 472.656158 C 21.636915 473.671753 22.520052 474.819824 22.520052 475.173096 C 22.520052 476.144531 35.767139 489.47995 36.73859 489.47995 C 37.180164 489.47995 38.328247 490.363098 39.343849 491.46701 C 40.447777 492.659241 41.551704 493.454071 42.125748 493.454071 C 42.69978 493.454071 43.538769 494.028107 44.068653 494.778778 C 44.642685 495.485291 45.481678 496.103485 45.967396 496.103485 C 46.453125 496.103485 47.380428 496.72168 47.998615 497.428192 C 48.616814 498.178864 49.499958 498.752899 50.118156 498.752899 C 50.648033 498.752899 51.222076 499.062012 51.398712 499.415253 C 51.531178 499.768524 52.105221 500.077606 52.723419 500.077606 C 53.297451 500.077606 53.871494 500.386719 54.04813 500.73996 C 54.180595 501.093231 54.754639 501.402344 55.372837 501.402344 C 55.946869 501.402344 56.520912 501.711426 56.697548 502.064697 C 56.830013 502.417938 57.404057 502.727051 58.022255 502.727051 C 58.596287 502.727051 59.17033 503.036133 59.346966 503.389404 C 59.479431 503.742645 60.053474 504.051758 60.671673 504.051758 C 61.245705 504.051758 61.819748 504.36084 61.996384 504.714111 C 62.128849 505.15567 62.835361 505.376465 63.983444 505.376465 C 65.087364 505.376465 65.793877 505.597229 65.970505 506.038818 C 66.102974 506.480377 66.809486 506.701172 68.001732 506.701172 C 69.193954 506.701172 69.900482 506.921936 70.032951 507.363525 C 70.209572 507.805084 70.916084 508.025879 71.975853 508.025879 C 73.035614 508.025879 73.742126 508.246674 73.918762 508.688232 C 74.09539 509.17395 74.890213 509.350586 77.274689 509.350586 C 79.659164 509.350586 80.453987 509.527222 80.630623 510.012939 C 80.851402 510.542816 81.734535 510.675293 84.560593 510.675293 C 87.386635 510.675293 88.269768 510.80777 88.490562 511.337646 C 88.711342 511.911682 107.698837 512 255.889618 512 C 404.080383 512 423.067871 511.911682 423.288635 511.337646 C 423.50946 510.80777 424.392578 510.675293 427.218628 510.675293 C 430.044678 510.675293 430.927795 510.542816 431.148621 510.012939 C 431.325226 509.527222 432.120056 509.350586 434.504517 509.350586 C 436.888977 509.350586 437.683807 509.17395 437.860443 508.688232 C 438.037079 508.246674 438.743622 508.025879 439.803375 508.025879 C 440.863129 508.025879 441.569641 507.805084 441.746277 507.363525 C 441.878754 506.921936 442.585266 506.701172 443.733337 506.701172 C 444.83725 506.701172 445.543793 506.480377 445.720398 506.038818 C 445.852875 505.597229 446.559387 505.376465 447.751617 505.376465 C 448.943848 505.376465 449.65036 505.15567 449.782837 504.714111 C 449.959442 504.36084 450.533508 504.051758 451.107544 504.051758 C 451.725739 504.051758 452.299774 503.742645 452.432251 503.389404 C 452.608856 503.036133 453.182922 502.727051 453.756958 502.727051 C 454.375153 502.727051 454.949188 502.417938 455.081665 502.064697 C 455.258301 501.711426 455.832336 501.402344 456.406372 501.402344 C 457.024567 501.402344 457.598602 501.093231 457.731079 500.73996 C 457.907715 500.386719 458.481781 500.077606 459.055786 500.077606 C 459.674011 500.077606 460.248016 499.768524 460.380493 499.415253 C 460.557129 499.062012 461.131195 498.752899 461.7052 498.752899 C 462.323425 498.752899 463.118256 498.267181 463.73645 497.428192 C 464.310486 496.633392 465.105316 496.103485 465.679321 496.103485 C 466.209198 496.103485 467.136536 495.529449 467.75473 494.778778 C 468.372925 494.028107 469.256073 493.454071 469.741791 493.454071 C 470.227509 493.454071 471.419739 492.570953 472.435364 491.46701 C 473.450958 490.363098 474.59906 489.47995 475.040619 489.47995 C 476.056244 489.47995 489.259186 476.232849 489.259186 475.173096 C 489.259186 474.731537 490.142303 473.583435 491.246246 472.612 C 492.350128 471.640533 493.233307 470.536621 493.233307 470.095032 C 493.233307 469.697632 493.851471 468.770325 494.558014 468.063812 C 495.308655 467.3573 495.882721 466.385864 495.882721 465.855957 C 495.882721 465.32608 496.456757 464.487091 497.207428 463.957214 C 498.046417 463.33902 498.532135 462.544189 498.532135 461.925995 C 498.532135 461.351959 498.841248 460.777924 499.194489 460.601288 C 499.547729 460.468811 499.856842 459.850616 499.856842 459.232422 C 499.856842 458.614227 500.165955 457.996033 500.519196 457.863556 C 500.872467 457.686951 501.181549 457.245361 501.181549 456.803802 C 501.181549 456.362213 501.490662 455.788177 501.843903 455.479095 C 502.197174 455.169983 502.506256 454.46347 502.506256 453.845276 C 502.506256 453.27124 502.815369 452.697205 503.16861 452.564728 C 503.521881 452.388092 503.830963 451.858215 503.830963 451.28418 C 503.830963 450.710144 504.140076 450.180237 504.493317 450.003601 C 504.934875 449.871155 505.15567 449.164642 505.15567 448.016541 C 505.15567 446.912628 505.376465 446.206116 505.818024 446.02948 C 506.259583 445.897034 506.480408 445.190521 506.480408 443.99826 C 506.480408 442.80603 506.701172 442.099518 507.142761 441.967041 C 507.58429 441.790436 507.805115 441.083923 507.805115 440.024139 C 507.805115 438.964386 508.025879 438.257874 508.467468 438.081238 C 508.953186 437.904602 509.129822 437.109802 509.129822 434.76947 C 509.129822 432.473297 509.306427 431.678467 509.792175 431.457703 C 510.322052 431.281067 510.454529 430.397949 510.454529 427.483582 C 510.454529 424.613373 510.586945 423.730225 511.116882 423.50943 C 511.690887 423.288666 511.779236 404.301147 511.779236 256.110382 C 511.779236 107.919617 511.690887 88.932129 511.116882 88.711365 C 510.586945 88.49054 510.454529 87.607422 510.454529 84.781372 C 510.454529 81.955322 510.322052 81.072205 509.792175 80.851379 C 509.306427 80.674774 509.129822 79.879944 509.129822 77.495483 C 509.129822 75.111023 508.953186 74.316193 508.467468 74.139557 C 508.025879 73.962921 507.805115 73.256378 507.805115 72.196625 C 507.805115 71.136871 507.58429 70.430359 507.142761 70.253723 C 506.701172 70.121246 506.480408 69.414734 506.480408 68.222504 C 506.480408 67.030273 506.259583 66.323792 505.818024 66.191315 C 505.376465 66.014679 505.15567 65.308136 505.15567 64.204224 C 505.15567 63.056152 504.934875 62.34964 504.493317 62.217163 C 504.140076 62.040558 503.830963 61.466492 503.830963 60.892456 C 503.830963 60.274261 503.521881 59.700226 503.16861 59.567749 C 502.815369 59.391144 502.506256 58.817078 502.506256 58.243042 C 502.506256 57.624847 502.197174 57.050812 501.843903 56.918335 C 501.490662 56.741699 501.181549 56.167664 501.181549 55.593628 C 501.181549 54.975433 500.872467 54.401398 500.519196 54.268921 C 500.165955 54.092285 499.856842 53.518219 499.856842 52.944214 C 499.856842 52.325989 499.547729 51.751984 499.194489 51.619507 C 498.841248 51.442871 498.532135 50.868805 498.532135 50.338928 C 498.532135 49.720734 497.958069 48.837616 497.207428 48.219391 C 496.500885 47.601196 495.882721 46.67392 495.882721 46.23233 C 495.882721 45.746613 495.308655 44.819336 494.558014 44.24527 C 493.851471 43.627075 493.233307 42.699799 493.233307 42.21405 C 493.233307 41.772491 492.350128 40.580261 491.246246 39.608795 C 490.142303 38.637329 489.259186 37.489258 489.259186 37.00351 C 489.259186 35.987915 475.967896 22.740814 474.952301 22.740814 C 474.554901 22.740814 473.362671 21.857697 472.347076 20.753754 C 471.287262 19.649872 470.095032 18.766693 469.653473 18.766693 C 469.256073 18.766693 468.372925 18.148529 467.75473 17.441986 C 467.180664 16.691345 466.253387 16.117279 465.76767 16.117279 C 465.32608 16.117279 464.398804 15.499115 463.780609 14.792572 C 463.162384 14.041931 462.279266 13.467865 461.661072 13.467865 C 461.131195 13.467865 460.557129 13.158752 460.380493 12.805511 C 460.248016 12.452271 459.674011 12.143158 459.055786 12.143158 C 458.481781 12.143158 457.907715 11.834045 457.731079 11.480804 C 457.598602 11.127533 457.024567 10.818451 456.406372 10.818451 C 455.832336 10.818451 455.258301 10.509338 455.081665 10.156097 C 454.949188 9.802826 454.375153 9.493744 453.756958 9.493744 C 453.182922 9.493744 452.608856 9.184631 452.432251 8.83139 C 452.299774 8.478119 451.725739 8.169037 451.107544 8.169037 C 450.533508 8.169037 449.959442 7.859924 449.782837 7.506683 C 449.65036 7.065125 448.943848 6.84433 447.751617 6.84433 C 446.559387 6.84433 445.852875 6.623535 445.720398 6.181976 C 445.543793 5.740417 444.83725 5.519592 443.777496 5.519592 C 442.717743 5.519592 442.0112 5.298828 441.834564 4.857239 C 441.702087 4.41571 440.995605 4.194885 439.847504 4.194885 C 438.743622 4.194885 438.037079 3.974121 437.860443 3.532532 C 437.683807 3.046814 436.888977 2.870178 434.548676 2.870178 C 432.252502 2.870178 431.457703 2.693573 431.236908 2.207825 C 431.060272 1.677948 430.177155 1.545471 427.262787 1.545471 C 424.392578 1.545471 423.50946 1.413055 423.288635 0.883118 C 423.067871 0.309113 404.080383 0.220764 255.889618 0.220764 C 107.698837 0.220764 88.711342 0.309113 88.490562 0.883118 Z M 272.183533 44.156982 C 272.360168 44.686859 273.50824 44.819336 278.188873 44.819336 C 282.913696 44.819336 284.017578 44.951782 284.194214 45.481689 C 284.415009 46.011566 285.342285 46.144043 288.830688 46.144043 C 292.319092 46.144043 293.290558 46.276489 293.467163 46.806396 C 293.687988 47.292114 294.438629 47.46875 296.514038 47.46875 C 298.41275 47.46875 299.428375 47.689514 299.825806 48.131104 C 300.179047 48.572662 301.194641 48.793457 302.784332 48.793457 C 304.46228 48.793457 305.212921 48.970093 305.389557 49.455811 C 305.566193 49.897369 306.316864 50.118164 307.774048 50.118164 C 309.098755 50.118164 310.070221 50.383087 310.423462 50.780518 C 310.776733 51.222076 311.792328 51.442871 313.381989 51.442871 C 315.059967 51.442871 315.810608 51.619507 315.987213 52.105225 C 316.163849 52.546783 316.870392 52.767578 317.930145 52.767578 C 318.857452 52.767578 319.828888 53.076691 320.13797 53.429932 C 320.447083 53.783203 321.330261 54.092285 322.16922 54.092285 C 323.140656 54.092285 323.803009 54.357208 324.067963 54.887085 C 324.377075 55.50531 324.862793 55.637787 326.055023 55.50531 C 327.203094 55.372803 327.688843 55.50531 327.909607 56.035156 C 328.086243 56.520905 328.748596 56.741699 329.896667 56.741699 C 331.044739 56.741699 331.751251 56.962494 331.883728 57.404053 C 332.060364 57.757324 332.63443 58.066406 333.208435 58.066406 C 333.82666 58.066406 334.400665 58.375519 334.533142 58.72879 C 334.709778 59.082031 335.195496 59.391144 335.681244 59.391144 C 336.166962 59.391144 337.094269 59.788513 337.712433 60.31839 C 338.463135 60.892456 339.213806 61.113251 339.87616 60.936615 C 340.582672 60.759979 340.980072 60.936615 341.156708 61.378204 C 341.333313 61.731445 341.774902 62.040558 342.216492 62.040558 C 342.65802 62.040558 343.320374 62.34964 343.717834 62.702911 C 344.071075 63.056152 344.777557 63.365265 345.307434 63.365265 C 345.793182 63.365265 346.323059 63.674347 346.455536 64.027618 C 346.632141 64.380859 347.206207 64.689972 347.780243 64.689972 C 348.398438 64.689972 348.972473 64.999084 349.10495 65.352325 C 349.281586 65.705566 349.855621 66.014679 350.429657 66.014679 C 351.003723 66.014679 351.666077 66.412079 351.931 66.853668 C 352.195953 67.383545 352.681671 67.604309 353.211548 67.471832 C 353.785614 67.339386 354.227173 67.56015 354.580414 68.222504 C 354.933655 68.884857 355.331085 69.061493 355.94931 68.884857 C 356.479187 68.708252 356.876587 68.840729 357.053192 69.282257 C 357.185669 69.679688 357.803894 69.9888 358.377899 69.9888 C 358.996124 69.9888 359.570129 70.297913 359.702606 70.651154 C 359.879242 71.004395 360.453308 71.313507 361.027344 71.313507 C 361.645538 71.313507 362.440369 71.799225 363.058594 72.638214 C 363.632599 73.433014 364.427429 73.962921 365.045654 73.962921 C 365.619659 73.962921 366.193695 74.272034 366.326172 74.625275 C 366.502777 74.978546 367.032715 75.287628 367.562592 75.287628 C 368.092468 75.287628 369.019775 75.861664 369.593781 76.612335 C 370.212006 77.318848 371.006836 77.892883 371.404236 77.937042 C 371.801636 77.937042 372.81723 78.643555 373.744537 79.526672 C 374.627655 80.365662 375.554993 80.939728 375.819946 80.807251 C 376.084869 80.630615 377.144653 81.425446 378.248535 82.529358 C 379.30835 83.633301 380.50058 84.560608 380.897949 84.560608 C 381.29541 84.560608 382.48764 85.443726 383.591553 86.547668 C 384.651306 87.65155 385.755249 88.534729 386.064331 88.534729 C 386.373413 88.534729 387.874756 89.771088 389.464417 91.27243 C 391.539825 93.30365 392.599579 94.010193 393.306061 93.921844 C 393.880127 93.833557 394.321686 93.966003 394.321686 94.186798 C 394.321686 94.451721 399.708832 100.015533 406.244049 106.550751 C 412.823456 113.085999 418.166443 118.738068 418.166443 119.091339 C 418.166443 119.44458 419.358704 120.990082 420.815857 122.447235 C 422.273041 123.948608 423.465271 125.449951 423.465271 125.847351 C 423.465271 126.200592 424.34845 127.304535 425.452332 128.364288 C 426.556274 129.424072 427.439392 130.660461 427.439392 131.102051 C 427.439392 131.587769 428.322571 132.779999 429.426453 133.839752 C 430.530396 134.855347 431.413513 135.95929 431.413513 136.312531 C 431.413513 136.665802 431.987579 137.54895 432.738251 138.255463 C 433.444763 138.961945 434.062958 139.97757 434.062958 140.507477 C 434.062958 141.037354 434.548676 141.832184 435.16687 142.317871 C 436.491577 143.377655 436.579926 144.172516 435.431854 144.172516 C 434.946106 144.172516 433.97464 144.746521 433.268158 145.497223 C 432.517456 146.203705 431.546021 146.82193 431.060272 146.82193 C 430.574554 146.82193 430.088806 147.131012 429.912201 147.484283 C 429.779724 147.837524 429.294037 148.146637 428.808289 148.146637 C 428.322571 148.146637 427.262787 148.720642 426.467957 149.471344 C 425.673157 150.177826 424.789978 150.796051 424.436737 150.796051 C 424.127625 150.796051 423.332825 151.370056 422.71463 152.120758 C 422.096405 152.871399 421.213287 153.445465 420.595093 153.445465 C 420.065216 153.445465 419.49115 153.754578 419.314514 154.107819 C 419.182037 154.46106 418.69635 154.770172 418.210632 154.770172 C 417.724884 154.770172 416.70929 155.344208 415.958588 156.094879 C 414.192322 157.816986 412.690979 157.905334 413.000092 156.271515 C 413.132568 155.388336 412.867615 154.902618 411.719513 153.975342 C 410.880524 153.312988 410.21817 152.429871 410.21817 151.988281 C 410.21817 151.546692 409.644165 150.619415 408.893463 149.912872 C 408.186981 149.20639 407.568756 148.323242 407.568756 147.925812 C 407.568756 147.528412 406.685638 146.380341 405.581696 145.408875 C 404.433624 144.349121 403.594635 143.20105 403.594635 142.671173 C 403.594635 142.141266 402.755646 141.037354 401.563416 140.021759 C 400.415344 139.006104 399.664703 138.034698 399.79715 137.681396 C 400.106232 136.930756 375.643311 112.379486 374.583527 112.379486 C 374.186127 112.379486 372.993896 111.496307 371.934113 110.392426 C 370.918488 109.288483 369.726257 108.405365 369.284698 108.405365 C 368.887299 108.405365 367.695068 107.522186 366.635254 106.418304 C 365.619659 105.314362 364.383301 104.431244 363.941711 104.431244 C 363.500122 104.431244 362.661133 103.857178 362.087128 103.106537 C 361.468903 102.399994 360.585785 101.825958 360.100067 101.78183 C 359.570129 101.78183 358.687012 101.207764 358.113007 100.457092 C 357.494781 99.75058 356.611664 99.176544 356.125916 99.132385 C 355.596008 99.132385 354.712891 98.55835 354.138855 97.807678 C 353.52066 97.101135 352.593353 96.52713 352.019318 96.482971 C 351.489441 96.482971 350.915375 96.173889 350.782898 95.820618 C 350.606293 95.467377 350.076416 95.158264 349.546539 95.158264 C 349.016663 95.158264 348.089355 94.584198 347.51532 93.833557 C 346.897125 93.127014 346.013977 92.553009 345.528259 92.50885 C 345.042542 92.50885 344.380188 92.11142 344.115204 91.669861 C 343.761963 91.095825 343.276245 90.875031 342.702209 91.051666 C 342.084015 91.184143 341.686584 91.051666 341.509949 90.565948 C 341.377502 90.168549 340.891785 89.859436 340.450195 89.859436 C 340.008606 89.859436 339.346252 89.550323 338.948853 89.197083 C 338.595612 88.843842 337.889099 88.534729 337.359192 88.534729 C 336.873474 88.534729 336.343597 88.225616 336.211121 87.872375 C 336.034485 87.519135 335.592957 87.210022 335.151367 87.210022 C 334.709778 87.210022 334.135742 86.900909 333.82666 86.547668 C 333.517548 86.150238 332.546082 85.885315 331.530487 85.885315 C 330.426544 85.885315 329.720032 85.66449 329.587555 85.222961 C 329.41095 84.86969 328.836914 84.560608 328.262848 84.560608 C 327.644684 84.560608 327.070618 84.251495 326.938141 83.898254 C 326.761536 83.456665 326.055023 83.235901 324.95108 83.235901 C 323.803009 83.235901 323.096497 83.015076 322.96402 82.573547 C 322.787384 82.220276 322.213379 81.911194 321.639313 81.911194 C 321.065277 81.911194 320.402924 81.513733 320.13797 81.072205 C 319.784729 80.365662 319.387329 80.233215 318.150909 80.453979 C 317.002838 80.630615 316.561279 80.542297 316.340485 79.968262 C 316.163849 79.482544 315.545685 79.261749 314.353424 79.261749 C 313.205322 79.261749 312.49884 79.040955 312.366364 78.599396 C 312.145569 78.113678 311.439087 77.937042 309.716919 77.937042 C 307.994812 77.937042 307.244141 77.760437 307.067505 77.274689 C 306.8909 76.83313 306.184387 76.612335 305.080444 76.612335 C 303.976563 76.612335 303.27002 76.347382 303.005096 75.905792 C 302.695984 75.375916 301.989502 75.19931 300.355682 75.19931 C 298.810181 75.243439 297.971161 75.066833 297.750397 74.625275 C 297.485474 74.227844 296.381561 73.962921 294.350342 73.830444 C 292.495728 73.742126 291.215179 73.477203 291.082703 73.168091 C 290.994385 72.81485 289.757996 72.638214 287.505981 72.638214 C 284.76828 72.638214 283.929291 72.461609 283.355225 71.843384 C 282.73703 71.18103 281.986389 71.092712 277.394043 71.225189 C 273.06665 71.313507 272.051056 71.225189 271.565338 70.651154 C 271.07959 70.077087 268.960052 69.9888 255.889618 69.9888 C 242.51004 69.9888 240.699615 70.077087 240.478836 70.695313 C 240.258041 71.269318 239.374893 71.357666 234.650101 71.269318 C 229.792831 71.136871 229.04216 71.225189 228.688919 71.887543 C 228.335663 72.505737 227.584991 72.638214 224.582336 72.638214 C 221.712112 72.638214 220.828979 72.77066 220.6082 73.300568 C 220.431564 73.786316 219.636749 73.962921 217.296432 73.962921 C 215.353516 73.962921 214.161285 74.139557 214.072968 74.492798 C 213.984665 74.757721 212.836578 75.066833 211.511871 75.155151 C 209.96637 75.243439 208.994904 75.508423 208.729965 75.949982 C 208.509171 76.347382 207.714371 76.612335 206.698761 76.612335 C 205.638992 76.612335 204.888321 76.83313 204.755844 77.230499 C 204.579224 77.62796 203.740234 77.848724 202.238907 77.892883 C 200.605087 77.892883 199.766113 78.157837 199.368698 78.643555 C 198.971283 79.21759 198.48555 79.305908 197.46994 79.129272 C 196.366028 78.908508 195.968613 79.040955 195.615356 79.703308 C 195.262085 80.365662 194.688049 80.586487 193.451675 80.586487 C 192.347733 80.586487 191.641235 80.807251 191.4646 81.24884 C 191.332123 81.602081 190.758087 81.911194 190.139893 81.911194 C 189.565857 81.911194 188.991806 82.220276 188.815186 82.573547 C 188.682709 83.015076 187.976181 83.235901 186.828125 83.235901 C 185.724182 83.235901 185.017685 83.456665 184.841064 83.898254 C 184.708588 84.251495 184.090378 84.560608 183.472183 84.560608 C 182.854004 84.560608 182.235794 84.86969 182.103317 85.222961 C 181.926682 85.620361 181.264328 85.885315 180.292892 85.885315 C 179.453888 85.885315 178.482452 86.194427 178.129181 86.547668 C 177.731781 86.900909 177.069427 87.210022 176.627853 87.210022 C 176.186295 87.210022 175.74472 87.519135 175.5681 87.872375 C 175.435623 88.225616 174.817413 88.534729 174.199219 88.534729 C 173.581039 88.534729 172.96283 88.843842 172.830353 89.197083 C 172.653717 89.550323 172.12384 89.859436 171.549805 89.859436 C 170.975769 89.859436 170.445892 90.168549 170.269257 90.52179 C 170.13678 90.875031 169.562744 91.184143 168.94455 91.184143 C 168.370514 91.184143 167.752304 91.493256 167.619843 91.890656 C 167.443207 92.288055 167.045807 92.464661 166.560074 92.332214 C 166.030182 92.155609 165.411987 92.553009 164.528839 93.612762 C 163.734024 94.54007 162.806717 95.158264 162.232681 95.158264 C 161.702805 95.158264 161.172928 95.467377 160.996307 95.820618 C 160.863815 96.173889 160.333954 96.482971 159.848221 96.482971 C 159.318329 96.482971 158.391022 97.057007 157.772842 97.807678 C 157.198807 98.514191 156.227341 99.132385 155.741608 99.132385 C 155.211731 99.176544 154.284424 99.75058 153.666229 100.457092 C 153.092194 101.207764 152.209045 101.78183 151.679169 101.78183 C 151.193436 101.825958 150.310303 102.399994 149.692108 103.106537 C 149.118073 103.857178 148.279083 104.431244 147.793365 104.431244 C 147.351791 104.431244 146.159546 105.314362 145.18811 106.418304 C 144.172485 107.522186 142.980255 108.405365 142.538681 108.405365 C 142.052963 108.405365 140.816559 109.288483 139.800964 110.392426 C 138.74118 111.496307 137.548935 112.379486 137.195694 112.379486 C 136.312546 112.379486 112.158699 136.489166 112.158699 137.372345 C 112.158699 137.725586 111.231384 138.961945 110.083321 140.110046 C 108.935234 141.258118 108.052094 142.450348 108.09626 142.803619 C 108.18457 143.112701 107.345589 144.260803 106.241653 145.364746 C 105.137733 146.424469 104.210442 147.660889 104.210442 148.102448 C 104.210442 148.499878 103.636398 149.294708 102.885735 149.824585 C 102.179214 150.398621 101.561028 151.237579 101.561028 151.723328 C 101.561028 152.209045 100.986984 153.136353 100.280464 153.842865 C 99.573959 154.549347 98.911606 155.564972 98.823296 156.139038 C 98.646652 157.419586 96.836227 157.861145 96.438812 156.801392 C 96.306335 156.403992 95.732292 156.094879 95.202415 156.094879 C 94.71669 156.094879 93.701073 155.476685 92.99456 154.770172 C 92.288055 154.019501 91.316605 153.445465 90.875031 153.445465 C 90.433464 153.445465 89.947739 153.136353 89.815269 152.783112 C 89.638634 152.429871 89.108757 152.120758 88.578873 152.120758 C 88.004829 152.120758 87.07753 151.502533 86.282707 150.575226 C 85.487885 149.60379 84.737213 149.118073 84.295639 149.250519 C 83.85408 149.382996 83.191727 148.985596 82.573524 148.146637 C 81.95533 147.351807 81.160507 146.82193 80.498154 146.82193 C 79.92411 146.82193 79.350067 146.512817 79.217598 146.159576 C 79.040962 145.806305 78.511086 145.497223 77.981201 145.497223 C 77.495476 145.497223 76.568176 144.967285 75.994141 144.39328 L 74.978523 143.289337 L 75.994141 142.406219 C 76.568176 141.96463 77.186378 141.56723 77.407158 141.523071 C 77.583786 141.523071 77.716255 141.081512 77.716255 140.507477 C 77.716255 139.933411 78.290298 139.050293 79.040962 138.432068 C 79.747475 137.813873 80.321518 136.930756 80.365669 136.489166 C 80.365669 136.003448 81.248817 134.767059 82.352737 133.707275 C 83.456665 132.69165 84.339798 131.455292 84.339798 131.013702 C 84.339798 130.572174 85.222946 129.468231 86.326859 128.540924 C 87.430786 127.569458 88.313927 126.465546 88.313927 126.023987 C 88.313927 125.538239 89.506165 123.992767 90.963341 122.491425 C 92.420532 121.034241 93.612762 119.532898 93.612762 119.179657 C 93.612762 118.296478 118.164032 93.833557 119.04718 93.833557 C 119.400429 93.833557 120.901764 92.641296 122.314781 91.184143 C 123.727806 89.726959 125.229156 88.534729 125.626556 88.534729 C 125.979828 88.534729 127.172058 87.65155 128.187668 86.547668 C 129.247437 85.443726 130.483826 84.560608 130.925385 84.560608 C 131.322815 84.560608 132.51506 83.677429 133.53067 82.573547 C 134.634583 81.425446 135.782669 80.586487 136.356705 80.586487 C 136.886581 80.586487 137.725555 80.012421 138.299606 79.261749 C 138.829498 78.511078 139.668472 77.937042 140.154205 77.937042 C 140.684082 77.892883 141.56723 77.318848 142.185425 76.612335 C 142.75946 75.861664 143.686752 75.287628 144.216644 75.287628 C 144.746521 75.287628 145.276413 74.978546 145.453049 74.625275 C 145.58551 74.272034 146.071228 73.962921 146.512817 73.962921 C 146.954376 73.962921 147.925842 73.388855 148.632339 72.638214 C 149.338852 71.931671 150.354462 71.313507 150.840195 71.313507 C 151.370071 71.313507 151.899963 71.004395 152.076584 70.651154 C 152.209045 70.297913 152.783096 69.9888 153.401291 69.9888 C 153.975342 69.9888 154.549377 69.679688 154.726013 69.326447 C 154.858459 68.973206 155.43251 68.664093 156.05072 68.664093 C 156.624756 68.664093 157.198807 68.35498 157.375427 68.00174 C 157.507889 67.648499 158.081924 67.339386 158.700134 67.339386 C 159.27417 67.339386 159.848221 67.030273 160.024841 66.677032 C 160.157303 66.323792 160.643036 66.014679 161.08461 66.014679 C 162.188538 66.014679 164.837952 64.689972 165.27951 63.93927 C 165.456131 63.630188 166.118484 63.365265 166.648392 63.365265 C 167.222427 63.365265 167.796478 63.056152 167.973099 62.702911 C 168.10556 62.34964 168.679596 62.040558 169.297806 62.040558 C 169.871841 62.040558 170.445892 61.731445 170.622513 61.378204 C 170.754974 60.936615 171.461487 60.715851 172.609573 60.715851 C 173.713501 60.715851 174.420013 60.495026 174.596634 60.053497 C 174.729095 59.700226 175.214828 59.391144 175.700562 59.391144 C 176.186295 59.391144 176.672012 59.214508 176.848648 58.993683 C 176.981125 58.772919 177.643478 58.463806 178.349976 58.287201 C 179.056503 58.154724 179.895477 57.713165 180.204575 57.359894 C 180.469513 57.006622 181.352646 56.741699 182.147476 56.741699 C 182.98645 56.741699 183.692978 56.476746 183.825439 56.123505 C 184.00206 55.726105 184.708588 55.50531 185.724182 55.50531 C 186.783966 55.50531 187.490479 55.240387 187.755417 54.798798 C 188.020355 54.357208 188.771027 54.092285 189.786621 54.092285 C 190.669769 54.092285 191.817856 53.783203 192.259415 53.429932 C 192.745148 53.076691 193.67244 52.767578 194.334793 52.767578 C 194.997147 52.767578 195.615356 52.458496 195.791977 52.105225 C 195.968613 51.619507 196.719269 51.442871 198.441406 51.442871 C 199.986877 51.442871 200.9142 51.266266 201.046646 50.868805 C 201.179138 50.471405 202.10643 50.25061 203.607758 50.206451 C 205.109085 50.162323 206.036407 49.941528 206.301346 49.544098 C 206.52211 49.146698 207.449432 48.881744 208.95076 48.837616 C 210.496246 48.837616 211.379379 48.572662 211.644318 48.131104 C 211.909256 47.645386 212.792404 47.46875 215.088577 47.46875 C 217.428894 47.46875 218.223724 47.292114 218.400345 46.806396 C 218.62114 46.276489 219.548431 46.144043 222.992661 46.144043 C 226.481064 46.144043 227.364212 46.011566 227.584991 45.4375 C 227.805771 44.863464 228.688919 44.775146 233.413712 44.907623 C 238.359299 45.0401 239.021652 44.995972 239.374893 44.289429 C 239.772308 43.538757 240.876236 43.494629 255.845444 43.494629 C 269.578278 43.538757 271.962738 43.627075 272.183533 44.156982 Z M 258.671478 152.120758 C 259.113068 152.120758 260.084503 152.694763 260.879333 153.445465 C 261.674194 154.151978 262.689789 154.770172 263.131348 154.770172 C 263.528778 154.770172 264.367767 155.344208 264.941772 156.094879 C 265.559998 156.801392 266.354828 157.375397 266.708069 157.419586 C 267.06134 157.419586 267.988586 158.03775 268.783447 158.744293 C 269.578278 159.494934 270.505585 160.069 270.902985 160.069 C 271.300385 160.069 272.580933 161.040466 273.729004 162.276855 C 274.877106 163.469086 276.157654 164.48468 276.510925 164.48468 C 276.864166 164.48468 277.835632 165.058746 278.630463 165.809387 C 279.425262 166.51593 280.35257 167.134094 280.617523 167.134094 C 280.882446 167.134094 281.588989 167.619812 282.162994 168.238037 C 282.73703 168.856232 283.53186 169.34198 283.929291 169.34198 C 284.326691 169.34198 285.695557 170.313416 286.976105 171.549805 C 288.256683 172.742035 289.537231 173.757629 289.846283 173.757629 C 290.155396 173.757629 290.950226 174.243378 291.612579 174.861572 C 292.274933 175.479797 293.069763 175.965515 293.378876 175.965515 C 293.687988 175.965515 294.482788 176.539551 295.189331 177.290222 C 295.895813 177.996735 296.867279 178.614929 297.397156 178.614929 C 297.927032 178.614929 298.766022 179.188965 299.295898 179.939636 C 299.914093 180.734436 300.708923 181.264343 301.282959 181.264343 C 301.945313 181.264343 302.916748 181.970856 303.976563 183.251404 C 305.036316 184.487793 306.05191 185.238464 306.670105 185.238464 C 307.199982 185.238464 308.038971 185.8125 308.568848 186.563202 C 309.142914 187.269684 309.849396 187.887909 310.246857 187.887909 C 311.174133 187.887909 313.514435 189.698334 313.514435 190.448975 C 313.514435 190.890564 313.823547 190.978851 314.574219 190.802246 C 315.369049 190.62561 315.810608 190.802246 316.428802 191.685394 C 316.914551 192.303558 318.062622 193.186737 319.078217 193.672455 C 320.049683 194.158203 321.330261 195.129608 321.860138 195.836151 C 322.389984 196.586792 323.184845 197.160858 323.626373 197.160858 C 324.023804 197.160858 324.862793 197.690735 325.480988 198.308929 C 326.055023 198.927124 327.158966 199.721954 327.953796 200.031036 C 328.704437 200.340149 329.720032 201.002502 330.20578 201.488251 C 330.691498 201.973969 331.4422 202.503845 331.927917 202.636322 C 332.369476 202.768799 333.517548 203.696075 334.489014 204.667542 C 335.460449 205.594849 336.564392 206.389648 336.917664 206.433807 C 337.270905 206.433807 338.374786 207.14032 339.302124 207.979309 C 340.27356 208.818268 341.289185 209.52478 341.554138 209.52478 C 341.819061 209.52478 342.613892 210.098846 343.320374 210.849487 C 344.026917 211.55603 344.910065 212.174194 345.351624 212.174194 C 345.749023 212.174194 346.676331 212.792419 347.427002 213.543091 C 348.177673 214.293732 348.972473 214.77948 349.281586 214.602844 C 349.546539 214.426208 350.253021 214.77948 350.827087 215.397675 L 351.931 216.457428 L 351.798553 290.596985 L 351.710205 364.736511 L 349.060791 365.089783 C 345.439911 365.531372 159.583252 365.266418 159.097549 364.824829 C 158.65596 364.38327 158.346878 228.86554 158.744278 221.138062 L 159.053391 215.750916 L 160.643036 215.000244 C 161.570328 214.602844 162.806717 213.675537 163.424927 212.969025 C 164.131424 212.218384 164.837952 211.820953 165.27951 211.95343 C 165.7211 212.130066 166.383453 211.688477 167.178268 210.672852 C 168.017242 209.657257 168.72377 209.171539 169.165329 209.304016 C 169.651062 209.480621 170.357574 208.994904 171.15239 207.979309 C 171.94722 207.007843 172.697891 206.433807 173.13945 206.566254 C 173.536865 206.69873 174.375854 206.213013 175.082367 205.5065 C 175.700562 204.800018 176.539536 204.225952 176.848648 204.225952 C 177.201889 204.225952 178.129181 203.607788 178.924011 202.901245 C 179.718857 202.150604 180.646149 201.576538 181.043564 201.576538 C 181.396805 201.576538 182.677353 200.560913 183.825439 199.368683 C 185.017685 198.132324 186.254089 197.160858 186.563171 197.160858 C 186.916443 197.160858 187.799561 196.542664 188.550232 195.836151 C 189.300903 195.085449 190.272354 194.511444 190.713913 194.511444 C 191.155502 194.511444 191.641235 194.24649 191.773697 193.937378 C 191.862 193.628265 192.745148 193.010101 193.628296 192.524384 C 194.555588 192.038635 195.924438 191.111328 196.67511 190.404846 C 197.425797 189.742493 198.308929 189.212616 198.706345 189.212616 C 199.059586 189.212616 199.942734 188.594391 200.649231 187.887909 C 201.355759 187.137207 202.194733 186.563202 202.503845 186.563202 C 202.812943 186.563202 203.740234 185.944977 204.535049 185.238464 C 205.32988 184.487793 206.213028 183.913757 206.52211 183.913757 C 206.875381 183.913757 207.979294 183.030609 208.994904 181.926697 C 210.452087 180.425385 211.114456 180.027924 211.865112 180.248749 C 212.527466 180.425385 212.836578 180.292908 212.836578 179.851318 C 212.836578 179.100677 215.176895 177.290222 216.104187 177.290222 C 216.501602 177.290222 217.208099 176.672028 217.782135 175.965515 C 218.356186 175.170685 219.151016 174.640808 219.769196 174.640808 C 220.343246 174.640808 221.138077 174.110901 221.756271 173.316101 C 222.286163 172.565399 223.125137 171.991394 223.61087 171.991394 C 224.140747 171.947205 225.023895 171.373169 225.642075 170.666687 C 226.216125 169.915985 227.055099 169.34198 227.496689 169.34198 C 227.982422 169.34198 229.130478 168.54715 230.101944 167.575684 C 231.073395 166.604218 232.265625 165.809387 232.707214 165.809387 C 233.192932 165.809387 233.766953 165.456146 233.987747 165.014587 C 234.208542 164.572998 235.180008 163.822327 236.1073 163.336609 C 237.034592 162.89505 238.447601 161.967743 239.242447 161.26123 C 240.037247 160.598877 240.920395 160.069 241.229507 160.069 C 241.538589 160.069 242.245102 159.539093 242.819153 158.965057 C 243.393188 158.346863 244.188004 157.861145 244.585419 157.861145 C 244.982834 157.861145 245.865982 157.242981 246.528336 156.536438 C 247.234833 155.785767 248.117981 155.211731 248.559555 155.211731 C 248.95697 155.211731 249.972565 154.505219 250.811554 153.666229 C 251.650528 152.827271 252.666153 152.120758 253.107712 152.120758 C 253.505127 152.120758 254.299942 151.502533 254.873993 150.796051 L 255.845444 149.471344 L 256.905212 150.796051 C 257.479248 151.502533 258.274078 152.120758 258.671478 152.120758 Z M 98.249252 356.34668 C 98.249252 357.053223 98.514191 357.671417 98.867439 357.803894 C 99.883041 358.157135 101.119438 359.614319 100.8545 360.232513 C 100.633713 360.80658 101.781799 362.307892 105.66761 366.370331 C 106.948174 367.739197 107.698837 368.887268 107.522217 369.284668 C 107.389732 369.637939 107.875465 370.476929 108.758614 371.315918 C 109.553421 372.066589 110.613197 373.391296 111.054756 374.230286 C 111.540489 375.069244 112.202843 375.952393 112.511948 376.129028 C 112.776886 376.305664 113.041824 376.791382 113.041824 377.100464 C 113.041824 377.453735 113.306778 377.762817 113.61586 377.762817 C 113.969131 377.762817 114.499008 378.248566 114.808113 378.86676 C 115.117195 379.440796 115.735405 380.05899 116.221138 380.235626 C 116.839325 380.412231 116.971802 380.721344 116.751007 381.604492 C 116.486076 382.575928 116.574387 382.664246 117.369217 382.443481 C 118.075722 382.222687 118.870552 382.708405 120.94593 384.695465 C 122.447266 386.10849 123.639496 387.389038 123.639496 387.565674 C 123.639496 388.007233 126.774643 391.009918 127.260368 391.009918 C 127.436996 391.009918 127.481163 391.539795 127.348679 392.15802 C 127.083748 393.173615 127.172058 393.261932 127.966888 393.041138 C 128.673386 392.820374 129.468231 393.306061 131.543594 395.293152 C 133.044937 396.706146 134.237167 397.986725 134.237167 398.20752 C 134.237167 398.384155 134.767059 399.046509 135.429413 399.620544 C 136.356705 400.371216 136.842438 400.547821 137.416473 400.238708 C 137.94635 399.973785 138.211288 399.973785 138.211288 400.238708 C 138.211288 400.459503 138.520401 400.98938 138.917816 401.38681 C 139.491852 401.960846 139.535995 402.181641 139.050278 402.755676 C 138.56456 403.329712 138.652878 403.373871 139.712631 403.108948 C 140.860703 402.843994 140.94902 402.888123 140.639938 403.771301 C 140.374985 404.698578 140.463318 404.742737 141.920486 404.477783 C 143.20105 404.21283 143.510132 404.301147 143.510132 404.875183 C 143.510132 405.272614 143.289352 405.581726 143.024399 405.581726 C 142.803619 405.581726 142.715317 405.80249 142.891937 406.111603 C 143.156876 406.509033 143.289352 406.509033 143.421814 406.111603 C 143.730911 405.184296 144.658203 405.537567 145.717987 406.906433 C 146.292023 407.612915 147.042694 408.23114 147.484253 408.23114 C 147.881668 408.23114 148.764816 408.805176 149.471313 409.555847 C 150.177841 410.26236 151.149292 410.880554 151.679169 410.880554 C 152.694778 410.880554 153.931168 412.116943 154.593521 413.83905 C 154.990952 414.942993 155.03511 414.942993 155.609131 414.192322 C 156.183182 413.397491 156.359818 413.485809 158.567657 415.428711 C 160.113159 416.797577 161.349548 417.504089 162.144363 417.504089 C 162.850891 417.504089 163.645721 417.90152 164.175598 418.608032 C 164.661331 419.182068 165.544449 419.88858 166.206802 420.109344 C 166.957489 420.418457 167.266571 420.771698 167.089951 421.257446 C 166.780853 422.052246 167.840622 422.140564 169.165329 421.47821 C 169.827682 421.124969 170.004303 421.169128 170.004303 421.699005 C 170.004303 422.052246 169.827682 422.361359 169.562744 422.361359 C 169.341949 422.361359 169.121185 422.670471 169.121185 423.023712 C 169.121185 423.376953 169.430267 423.686066 169.783539 423.686066 C 170.13678 423.686066 170.445892 423.465271 170.445892 423.244507 C 170.445892 422.582153 171.284866 422.7146 173.448563 423.774384 C 174.552475 424.260132 175.523926 425.054932 175.656418 425.540649 C 175.877182 426.467957 176.627853 426.600433 177.422684 425.805603 C 177.820099 425.408203 177.996719 425.496521 178.217514 426.026398 C 178.394135 426.512115 178.968185 426.73291 180.027939 426.688751 C 181.087708 426.644592 181.705917 426.865356 182.014999 427.351105 C 182.235794 427.792664 182.80983 428.101746 183.251389 428.101746 C 183.737122 428.101746 184.752731 428.499176 185.503418 428.940765 C 186.254089 429.426483 187.181381 429.691406 187.578796 429.55896 C 187.932037 429.382324 188.41777 429.603119 188.63855 430.000519 C 188.859329 430.442078 189.521683 430.75119 190.095734 430.75119 C 190.713913 430.75119 191.199646 430.883667 191.199646 431.060303 C 191.199646 431.281067 191.773697 431.722656 192.480209 432.120056 C 193.451675 432.694092 193.893234 432.738251 194.290649 432.34082 C 194.643906 431.987579 194.908844 432.031738 195.217941 432.605774 C 195.527039 433.135681 196.189407 433.400604 197.337463 433.400604 C 198.441406 433.400604 199.147903 433.621399 199.324524 434.062958 C 199.501175 434.548676 200.207672 434.725311 201.709 434.725311 C 203.122025 434.725311 204.093491 434.946106 204.446732 435.387665 C 204.755844 435.740906 205.727295 436.050018 206.654587 436.050018 C 207.581879 436.050018 208.553345 436.359131 208.862442 436.712372 C 209.215698 437.153931 210.187149 437.374725 211.556015 437.374725 C 213.189819 437.374725 213.719696 437.551361 213.719696 438.037079 C 213.719696 438.478638 214.161285 438.699432 215.176895 438.699432 C 215.971725 438.699432 216.854843 438.920227 217.163956 439.229309 C 217.561371 439.62674 217.826309 439.62674 218.223724 439.229309 C 219.018539 438.434509 220.696518 438.566956 220.873138 439.450104 C 221.0056 440.156616 221.447189 440.200775 224.229065 440.112457 C 226.834335 439.97998 227.62915 440.112457 228.335663 440.730652 C 229.086334 441.393005 230.013626 441.481323 234.694275 441.481323 C 239.109955 441.437164 240.302185 441.569641 240.567154 442.055359 C 241.14119 443.070984 270.417236 443.026825 271.521179 442.0112 C 272.139343 441.481323 273.46405 441.348846 277.835632 441.348846 C 282.207153 441.348846 283.487701 441.21637 283.929291 440.686493 C 284.326691 440.200775 285.342285 440.024139 287.461823 440.024139 C 289.58139 440.024139 290.596985 439.847534 290.994385 439.361786 C 291.391815 438.876068 292.40741 438.699432 294.526978 438.699432 C 296.778931 438.699432 297.573792 438.522827 297.794556 438.037079 C 297.971161 437.551361 298.721863 437.374725 300.44397 437.374725 C 302.03363 437.374725 303.005096 437.153931 303.225861 436.756531 C 303.402496 436.447449 304.550568 436.050018 305.742798 435.9617 C 306.935089 435.829224 308.038971 435.475983 308.215607 435.16687 C 308.436401 434.76947 309.098755 434.681152 310.158508 434.857788 C 311.439087 435.078552 311.880615 434.946106 312.366364 434.195435 C 312.852081 433.488922 313.470276 433.268127 314.618378 433.312286 C 315.633972 433.356445 316.296326 433.135681 316.428802 432.738251 C 316.605438 432.38501 317.179443 432.075897 317.797668 432.075897 C 318.415863 432.075897 319.431488 431.810944 320.049683 431.501831 C 323.670563 429.647278 324.774445 429.249847 325.745911 429.338165 C 326.364136 429.426483 326.849854 429.205688 327.026489 428.808289 C 327.158966 428.410858 327.732971 428.101746 328.307037 428.101746 C 328.836914 428.101746 329.543427 427.792664 329.852509 427.439392 C 330.161621 427.086151 331.088898 426.777039 331.927917 426.777039 C 332.855194 426.777039 333.517548 426.512115 333.650024 426.114685 C 333.82666 425.761444 334.312378 425.452332 334.798096 425.452332 C 335.327972 425.452332 335.946198 425.099091 336.25531 424.701691 C 336.741028 424.083496 336.917664 424.039307 337.535828 424.525055 C 338.109894 425.010773 338.286499 424.922485 338.728088 423.951019 C 339.081329 423.200348 339.611206 422.802917 340.317719 422.802917 C 340.891785 422.802917 341.46579 422.493835 341.598267 422.140564 C 341.774902 421.787323 342.348938 421.47821 342.922974 421.47821 C 343.541199 421.47821 344.115204 421.169128 344.247681 420.815857 C 344.424316 420.462616 344.954193 420.153503 345.48407 420.153503 C 346.013977 420.153503 347.029602 419.579468 347.780243 418.917114 C 348.972473 417.724884 351.621887 416.179382 352.416718 416.179382 C 352.637543 416.179382 353.388184 415.561188 354.094666 414.810516 C 355.066132 413.794922 355.640198 413.529968 356.302551 413.750732 C 357.053192 413.971558 357.229828 413.83905 357.229828 413.132568 C 357.229828 412.64682 357.627258 412.161102 358.113007 411.984467 C 358.598724 411.85199 358.996124 411.498749 358.996124 411.277954 C 358.996124 411.05719 359.614319 410.880554 360.320831 410.880554 C 361.071503 410.880554 361.645538 410.65976 361.645538 410.394836 C 361.645538 409.776611 363.455963 408.275269 364.250793 408.23114 C 364.868988 408.23114 365.354706 407.83374 367.562592 405.670044 C 368.136597 405.140137 368.887299 404.698578 369.196381 404.698578 C 369.549652 404.698578 370.786011 403.682983 371.978241 402.490723 C 373.170532 401.254333 374.362762 400.282898 374.627655 400.282898 C 375.24588 400.282898 381.074585 394.674957 381.074585 394.056732 C 381.074585 393.835968 381.251221 393.659332 381.472015 393.659332 C 382.001892 393.659332 391.672272 383.988953 391.672272 383.459045 C 391.672272 383.238281 391.848877 383.061676 392.069702 383.061676 C 392.687866 383.061676 399.134796 376.526428 400.282867 374.716003 C 400.812775 373.832855 401.916687 372.552307 402.667358 371.845795 C 403.417999 371.095123 404.036224 370.123657 404.036224 369.637939 C 404.080383 369.108063 404.566101 368.313232 405.184296 367.827515 C 407.171356 366.282013 408.010345 365.266418 408.010345 364.427429 C 408.010345 363.367676 409.688293 361.733856 410.483154 362.042969 C 411.013031 362.263733 411.101349 361.998779 410.836395 360.80658 C 410.615631 359.57016 410.703918 359.261047 411.45459 359.040283 C 411.940338 358.863647 412.470215 358.466248 412.602692 358.112976 C 412.735168 357.759705 413.132568 357.450623 413.529968 357.450623 C 414.368927 357.450623 414.368927 356.832428 413.529968 356.125916 C 413.088409 355.772644 413.000092 355.375244 413.265045 355.110291 C 413.662445 354.712891 416.841736 356.876587 416.841736 357.53894 C 416.841736 357.759705 417.327454 357.892212 417.90152 357.892212 C 418.475555 357.892212 419.049591 358.201294 419.226227 358.554565 C 419.358704 358.907806 419.976868 359.216919 420.550934 359.216919 C 421.301575 359.216919 422.008118 359.702637 422.670471 360.541626 C 423.200348 361.248108 423.90686 361.866333 424.260101 361.866333 C 424.613342 361.866333 425.584808 362.440369 426.423798 363.19104 C 427.218628 363.897522 428.410858 364.515747 428.984924 364.515747 C 429.823914 364.515747 430.088806 364.736511 430.088806 365.443054 C 430.088806 366.237854 430.265442 366.326172 431.413513 366.061218 C 432.694092 365.796295 433.268158 366.326172 432.296692 366.944366 C 431.501862 367.430115 431.810974 368.136597 432.694092 367.827515 C 433.17981 367.695038 433.665558 367.783356 433.842163 368.048279 C 433.97464 368.269104 434.636993 368.489868 435.299347 368.489868 L 436.491577 368.533997 L 435.078552 369.814575 C 434.283752 370.521088 433.621399 371.448364 433.621399 371.845795 C 433.621399 372.243225 433.047333 373.25882 432.296692 374.097778 C 431.590149 374.892639 430.971985 375.819916 430.971985 376.129028 C 430.971985 376.791382 429.205688 377.983612 428.455017 377.851135 C 428.145935 377.762817 428.057617 378.071899 428.190094 378.645966 C 428.322571 379.220001 428.145935 379.617432 427.704346 379.794067 C 427.306976 379.926514 426.997864 380.456421 426.997864 380.942139 C 426.997864 381.957733 424.392578 385.269501 423.597748 385.269501 C 423.288635 385.269501 423.023743 385.755249 423.023743 386.373444 C 423.023743 387.035797 422.758759 387.477356 422.361389 387.477356 C 422.008118 387.477356 421.47821 387.918915 421.213287 388.448822 C 420.904175 389.022858 420.021057 390.170959 419.182037 391.009918 C 418.387238 391.848907 417.724884 392.776184 417.724884 393.129456 C 417.724884 393.438538 416.797577 394.674957 415.649506 395.911346 C 413.927399 397.721771 413.353333 398.075043 412.470215 397.854248 C 411.542908 397.633484 411.45459 397.677612 411.940338 398.251648 C 412.426056 398.781555 412.028625 399.355591 409.467529 401.78421 C 407.83371 403.373871 406.332397 404.698578 406.155762 404.698578 C 405.934967 404.698578 405.802521 404.875183 405.802521 405.051819 C 405.802521 405.84668 398.693237 412.735138 398.119171 412.514343 C 397.721771 412.337708 397.589294 412.514343 397.721771 413.04425 C 397.854248 413.529968 397.501007 414.192322 396.882813 414.67807 C 396.308746 415.163757 395.33728 416.179382 394.763275 416.930054 C 393.968414 418.078125 393.526886 418.29892 392.687866 418.122284 C 391.937225 417.90152 391.672272 418.033997 391.672272 418.563873 C 391.672272 418.917114 391.186523 419.358704 390.612518 419.535309 C 390.038452 419.667786 389.376099 420.241821 389.067017 420.860016 C 388.802063 421.434082 388.316345 421.9198 387.918945 421.9198 C 387.565704 421.9198 387.256592 422.228882 387.256592 422.582153 C 387.256592 422.935425 386.859161 423.244507 386.373413 423.244507 C 385.490295 423.244507 383.723999 424.657532 383.723999 425.408203 C 383.723999 425.93808 381.69281 427.218628 380.853821 427.218628 C 380.50058 427.218628 379.838226 427.571899 379.396637 427.969299 C 378.955078 428.410858 377.851135 429.338165 376.923828 430.088837 C 376.04071 430.795349 374.627655 431.94342 373.832886 432.605774 C 372.993896 433.312286 371.978241 433.842163 371.492523 433.842163 C 371.050964 433.842163 370.43277 434.062958 370.123657 434.37207 C 369.770416 434.725311 369.461304 434.725311 368.931427 434.283752 C 368.40155 433.842163 368.269073 433.842163 368.269073 434.416199 C 368.269073 434.813629 368.489838 435.255188 368.710663 435.387665 C 369.682129 436.005859 369.108063 436.535736 367.827484 436.270813 C 366.679413 436.005859 366.502777 436.094177 366.502777 436.889008 C 366.502777 437.59552 366.237885 437.816284 365.398895 437.816284 C 364.824829 437.816284 363.632599 438.39035 362.837769 439.140991 C 361.998779 439.847534 360.983185 440.465729 360.585785 440.465729 C 360.188354 440.465729 359.746796 440.774811 359.614319 441.128082 C 359.305237 441.922913 358.245422 442.0112 357.980499 441.21637 C 357.892181 440.907288 357.53894 441.21637 357.229828 441.878723 C 356.832428 442.717712 356.302551 443.115143 355.596008 443.115143 C 355.022003 443.115143 354.447968 443.424225 354.315491 443.777496 C 354.138855 444.130737 353.564819 444.43985 352.990784 444.43985 C 352.372589 444.43985 351.798553 444.748932 351.666077 445.102203 C 351.489441 445.455444 350.915375 445.764557 350.385498 445.764557 C 349.811493 445.764557 349.193268 445.941162 349.060791 446.206116 C 348.928314 446.42691 348.31012 446.647705 347.780243 446.647705 C 347.117889 446.647705 346.632141 446.956787 346.499725 447.530823 C 346.367249 448.104889 345.8815 448.413971 345.219147 448.413971 C 344.68927 448.413971 343.806122 448.723053 343.364563 449.076324 C 342.878845 449.429596 342.039856 449.738678 341.46579 449.738678 C 340.847595 449.738678 340.450195 450.003601 340.450195 450.401031 C 340.450195 450.842621 340.008606 451.063385 339.257965 451.063385 C 338.639771 451.063385 337.712433 451.416656 337.226746 451.814056 C 336.431915 452.564728 336.387726 452.564728 335.769562 451.769897 C 335.195496 450.930908 335.151367 450.975067 334.665619 452.299774 C 334.312378 453.359558 333.914978 453.712799 333.120148 453.712799 C 332.501953 453.712799 331.927917 454.021912 331.795441 454.375153 C 331.618805 454.772583 330.956451 455.037506 330.073303 455.037506 C 329.234314 455.037506 328.262848 455.346619 327.865448 455.744019 C 327.423889 456.185608 326.673218 456.406372 325.834259 456.273926 C 324.862793 456.09729 324.332916 456.318054 323.891327 456.936279 C 323.405609 457.642761 322.96402 457.775238 321.683502 457.554474 C 320.447083 457.333679 320.049683 457.466156 319.828888 458.040192 C 319.387329 459.144104 318.724976 459.497375 317.400269 459.188263 C 316.561279 459.011658 316.11969 459.188263 315.810608 459.71814 C 315.501495 460.292206 314.971619 460.424652 313.381989 460.248047 C 311.748169 460.071411 311.174133 460.159729 310.600098 460.822083 C 310.070221 461.440277 309.231201 461.661072 307.68573 461.661072 C 306.140228 461.661072 305.477875 461.837677 305.25708 462.367584 C 305.036316 462.897461 304.594727 462.985779 302.87262 462.764984 C 301.018036 462.500031 300.708923 462.588348 300.179047 463.383179 C 299.693329 464.178009 299.163452 464.310486 296.867279 464.310486 C 295.056854 464.310486 293.952911 464.53125 293.511353 464.972839 C 293.025635 465.458557 291.833374 465.591034 288.78656 465.546875 C 285.386444 465.502716 284.635803 465.635193 284.282532 466.209229 C 283.929291 466.827423 283.090302 466.9599 278.586273 466.9599 C 274.921234 466.9599 272.934174 467.136536 272.095215 467.578094 C 270.240631 468.505371 241.229507 468.593689 239.993103 467.666412 C 239.33075 467.136536 237.785248 467.004059 233.502014 466.9599 C 228.998016 466.9599 227.805771 466.827423 227.540833 466.297546 C 227.23175 465.811829 226.216125 465.591034 223.390076 465.546875 C 221.358871 465.502716 219.415955 465.591034 219.151016 465.76767 C 218.79776 465.988464 218.488663 465.723511 218.356186 465.105286 C 218.091248 464.13385 217.914612 464.089691 215.132721 464.222168 C 212.218369 464.398804 212.130051 464.354645 211.600174 463.162384 C 211.1586 462.279266 210.893661 462.102631 210.540405 462.455872 C 209.613113 463.383179 207.184464 463.074097 206.610428 461.970154 C 205.859756 460.557129 205.859756 460.557129 204.844147 461.484436 C 203.961014 462.279266 203.916855 462.279266 202.547989 461.484436 C 201.753174 461.042847 199.986877 460.557129 198.618027 460.468811 C 197.205002 460.336365 196.056915 460.071411 196.056915 459.850616 C 196.056915 459.674011 195.173782 459.364899 194.114029 459.232422 C 193.010086 459.055786 192.038635 458.614227 191.906174 458.260986 C 191.729538 457.819397 191.287964 457.686951 190.360672 457.907715 C 189.389206 458.12851 188.859329 457.951874 188.196976 457.245361 C 187.62294 456.583008 186.783966 456.273926 185.768356 456.273926 C 184.841064 456.273926 184.090378 456.008972 183.957916 455.655701 C 183.825439 455.258301 183.074768 455.037506 181.970856 455.037506 C 180.866928 455.037506 180.160416 454.816742 179.983795 454.375153 C 179.851303 454.021912 179.277267 453.712799 178.659073 453.712799 C 178.085037 453.712799 177.511002 453.403717 177.334366 453.050446 C 177.201889 452.697205 176.58371 452.388092 175.9655 452.388092 C 175.258987 452.388092 174.861572 452.123169 174.861572 451.725739 C 174.861572 451.240021 174.331696 451.063385 172.918686 451.063385 C 171.593979 451.063385 170.887451 450.842621 170.710831 450.401031 C 170.578354 450.047791 169.960159 449.738678 169.341949 449.738678 C 168.370514 449.738678 168.238037 449.606201 168.502975 448.634766 C 168.812073 447.354187 168.72377 447.354187 167.089951 448.060699 C 166.118484 448.502289 165.853546 448.502289 165.411987 447.884094 C 165.147049 447.530823 164.528839 447.089264 164.043121 447.000946 C 163.557388 446.912628 163.204132 446.559387 163.29245 446.294434 C 163.336609 445.985352 162.806717 445.764557 161.879425 445.764557 C 160.952133 445.764557 160.28978 445.499634 160.113159 445.102203 C 159.980682 444.748932 159.494949 444.43985 159.009232 444.43985 C 158.523514 444.43985 158.037781 444.263214 157.86116 444.042419 C 157.728668 443.821655 157.066315 443.512543 156.359818 443.335907 C 155.653305 443.20343 154.946777 442.761871 154.814316 442.40863 C 154.681839 442.055359 154.06366 441.790436 153.44545 441.790436 C 152.827255 441.790436 152.209045 441.481323 152.076584 441.128082 C 151.899963 440.774811 151.41423 440.465729 150.928513 440.465729 C 150.398636 440.465729 149.42717 439.847534 148.720657 439.140991 C 148.058289 438.39035 147.086853 437.816284 146.556961 437.816284 C 145.894608 437.816284 145.717987 437.59552 145.894608 437.021484 C 146.115402 436.314972 145.982925 436.226654 144.878998 436.40329 C 143.863403 436.535736 143.289352 436.226654 142.008789 434.946106 C 141.125671 434.062958 140.198349 433.488922 139.977585 433.621399 C 139.491852 433.930481 138.078827 432.605774 137.328171 431.192749 C 136.930756 430.442078 136.709961 430.35376 136.224228 430.75119 C 135.738495 431.14859 135.164474 430.839478 133.53067 429.249847 C 132.426727 428.145935 131.234497 427.218628 130.881241 427.218628 C 130.528 427.218628 129.424057 426.379639 128.364288 425.319885 C 127.304535 424.30426 125.759033 423.067871 124.920059 422.626312 C 123.021301 421.522369 122.358948 420.639252 122.314781 419.270386 C 122.314781 418.431396 122.182327 418.343079 121.784912 418.740479 C 121.034241 419.49115 120.680992 419.402832 120.416031 418.387238 C 120.195259 417.504089 119.04718 417.195007 118.605614 417.90152 C 118.473137 418.122284 117.545845 417.504089 116.574387 416.532654 C 114.808113 414.766357 114.410698 413.971558 115.24968 413.971558 C 115.514618 413.971558 115.691238 413.750732 115.691238 413.485809 C 115.691238 413.132568 115.470467 413.132568 115.028885 413.529968 C 114.499008 413.971558 113.748344 413.44165 110.613197 410.350647 C 107.742989 407.480469 106.992317 406.509033 107.389732 406.111603 C 107.787155 405.714172 107.742989 405.40509 107.168945 404.831055 C 106.594902 404.257019 106.28582 404.21283 105.888405 404.61026 C 105.049423 405.449249 103.989647 404.389465 104.740318 403.462189 C 105.226044 402.888123 105.181877 402.799835 104.519524 403.064758 C 103.415611 403.462189 96.041397 396.264587 96.792061 395.513916 C 97.586899 394.719086 96.394646 393.615173 95.025795 393.968445 C 94.054337 394.189209 93.966019 394.100891 94.142647 393.306061 C 94.319275 392.687866 94.098503 392.069672 93.436134 391.495667 C 92.950409 391.009918 91.669853 389.773529 90.610092 388.802063 C 89.550323 387.830627 88.755501 386.770844 88.799652 386.461761 C 88.88797 386.196808 87.960678 384.960419 86.85675 383.768188 C 85.708664 382.575928 84.781372 381.29538 84.781372 380.89798 C 84.737213 380.500549 83.85408 379.308319 82.794312 378.204407 C 81.690384 377.100464 80.807243 375.819916 80.807243 375.334167 C 80.807243 374.760132 80.321518 374.230286 79.482536 373.877014 C 78.555244 373.435425 78.157829 372.949707 78.157829 372.243225 C 78.157829 370.609375 77.672096 369.770416 76.435699 369.328857 L 75.287628 368.887268 L 76.391548 368.048279 C 77.009743 367.562561 78.069511 367.165161 78.731865 367.165161 C 79.438377 367.165161 79.879951 366.988525 79.703316 366.723572 C 79.570847 366.458649 79.92411 366.105408 80.498154 365.884583 C 81.072182 365.663818 82.13195 364.869019 82.838463 364.118347 C 84.16317 362.705322 85.664505 362.307892 85.664505 363.367676 C 85.664505 363.720917 85.355415 364.118347 84.958 364.250793 C 84.604744 364.38327 84.428108 364.736511 84.560593 365.001465 C 84.781372 365.310547 85.134628 365.222229 85.620354 364.780701 C 86.06192 364.38327 86.635963 364.074158 86.900902 364.074158 C 87.695724 364.074158 87.519104 363.279358 86.680122 362.79364 C 85.929459 362.352051 85.929459 362.263733 86.768433 361.601379 C 87.254166 361.203979 88.181458 360.718262 88.88797 360.453308 C 89.550323 360.232513 90.080208 359.835083 90.080208 359.614319 C 90.080208 359.393555 90.477623 359.216919 90.963341 359.216919 C 92.332207 359.216919 93.966019 358.289612 94.186813 357.406494 C 94.319275 356.920746 94.760857 356.567505 95.246567 356.567505 C 95.688148 356.567505 96.306335 356.170074 96.61544 355.640198 C 97.366104 354.447937 98.249252 354.801208 98.249252 356.34668 Z"/>
        <path id="path1" fill="#000000" stroke="none" d="M 97.851837 361.733856 C 97.366104 362.219574 97.586899 362.749451 98.249252 362.749451 C 98.602501 362.749451 98.911606 362.572815 98.911606 362.352051 C 98.911606 361.778015 98.205086 361.380615 97.851837 361.733856 Z"/>
        <path id="path2" fill="#000000" stroke="none" d="M 423.730225 363.853394 C 423.90686 364.206635 424.171814 364.515747 424.392578 364.515747 C 424.613342 364.515747 424.789978 364.206635 424.789978 363.853394 C 424.789978 363.500122 424.480865 363.19104 424.127625 363.19104 C 423.730225 363.19104 423.597748 363.455994 423.730225 363.853394 Z"/>
        <path id="path3" fill="#000000" stroke="none" d="M 427.660217 365.840454 C 427.306976 366.370331 428.410858 368.048279 429.073212 368.048279 C 429.382324 368.048279 429.647278 367.827515 429.647278 367.60672 C 429.647278 366.900208 427.92514 365.398865 427.660217 365.840454 Z"/>
        <path id="path4" fill="#000000" stroke="none" d="M 95.467354 367.695038 C 94.71669 368.445709 94.805 369.372986 95.599831 369.372986 C 95.953087 369.372986 96.262192 369.196381 96.262192 368.975586 C 96.262192 368.754822 96.394646 368.269104 96.52713 367.871643 C 96.836227 367.032684 96.218025 366.944366 95.467354 367.695038 Z"/>
        <path id="path5" fill="#000000" stroke="none" d="M 408.010345 368.710632 C 408.010345 369.417175 408.716858 369.593811 409.070099 368.975586 C 409.202576 368.754822 409.02594 368.489868 408.672699 368.313232 C 408.275299 368.180786 408.010345 368.313232 408.010345 368.710632 Z"/>
        <path id="path6" fill="#000000" stroke="none" d="M 105.535149 371.271729 C 105.535149 372.154907 106.46244 372.905579 107.522217 372.861389 C 108.361191 372.861389 108.361191 372.817261 107.433899 372.375671 C 106.859863 372.110718 106.418274 371.625 106.418274 371.271729 C 106.418274 370.962646 106.241653 370.697693 105.976715 370.697693 C 105.75592 370.697693 105.535149 370.962646 105.535149 371.271729 Z"/>
        <path id="path7" fill="#000000" stroke="none" d="M 423.465271 371.580872 C 423.465271 371.801636 423.156158 372.0224 422.802917 372.0224 C 422.449677 372.0224 422.140564 372.199036 422.140564 372.463989 C 422.140564 373.170502 422.979553 372.993896 423.995178 372.0224 C 424.834167 371.271729 424.834167 371.139282 424.215973 371.139282 C 423.818512 371.139282 423.465271 371.315918 423.465271 371.580872 Z"/>
        <path id="path8" fill="#000000" stroke="none" d="M 403.153107 373.612091 C 402.623169 374.45105 402.269928 375.290039 402.402405 375.422485 C 402.755646 375.731628 404.875214 373.302979 404.919342 372.552307 C 404.919342 371.536682 404.124542 372.0224 403.153107 373.612091 Z"/>
        <path id="path9" fill="#000000" stroke="none" d="M 407.83371 372.375671 C 407.701233 372.640625 407.789581 372.993896 408.054504 373.126343 C 408.716858 373.567932 409.158447 372.993896 408.584381 372.41983 C 408.275299 372.110718 408.010345 372.110718 407.83371 372.375671 Z"/>
        <path id="path10" fill="#000000" stroke="none" d="M 408.761047 375.599152 C 407.922028 376.526428 407.789581 377.321259 408.407745 377.321259 C 408.937653 377.321259 410.21817 376.04071 410.21817 375.554993 C 410.21817 374.716003 409.467529 374.760132 408.761047 375.599152 Z"/>
        <path id="path11" fill="#000000" stroke="none" d="M 423.90686 375.113403 C 423.90686 375.334167 424.127625 375.554993 424.34845 375.554993 C 424.613342 375.554993 424.789978 375.952393 424.789978 376.43811 C 424.789978 376.923859 424.480865 377.321259 424.127625 377.321259 C 423.774384 377.321259 423.465271 377.497864 423.465271 377.762817 C 423.465271 378.46933 424.30426 378.292725 425.275726 377.365417 L 426.203033 376.526428 L 425.275726 375.599152 C 424.260101 374.583527 423.90686 374.45105 423.90686 375.113403 Z"/>
        <path id="path12" fill="#000000" stroke="none" d="M 428.543335 375.069244 C 428.234222 375.599152 429.073212 376.129028 429.647278 375.775757 C 430.132996 375.466675 429.823914 374.671814 429.205688 374.671814 C 428.984924 374.671814 428.719971 374.84845 428.543335 375.069244 Z"/>
        <path id="path13" fill="#000000" stroke="none" d="M 403.859589 377.542053 C 403.682983 378.071899 403.81546 378.248566 404.345337 378.116089 C 405.140167 377.983612 405.272614 377.232941 404.566101 376.968018 C 404.345337 376.923859 404.036224 377.144623 403.859589 377.542053 Z"/>
        <path id="path14" fill="#000000" stroke="none" d="M 106.639069 378.204407 C 106.771545 378.425171 107.168945 378.645966 107.522217 378.645966 C 107.875465 378.645966 108.272881 378.425171 108.405342 378.204407 C 108.581963 377.939453 108.18457 377.762817 107.522217 377.762817 C 106.859863 377.762817 106.46244 377.939453 106.639069 378.204407 Z"/>
        <path id="path15" fill="#000000" stroke="none" d="M 88.358078 381.69281 C 87.916519 381.957733 87.916519 382.134338 88.313927 382.399323 C 88.88797 382.752563 89.373695 382.443481 89.152916 381.781128 C 89.020439 381.516174 88.711342 381.471985 88.358078 381.69281 Z"/>
        <path id="path16" fill="#000000" stroke="none" d="M 413.309174 381.957733 C 413.309174 382.311005 413.529968 382.620087 413.750763 382.620087 C 414.015686 382.620087 414.192322 382.311005 414.192322 381.957733 C 414.192322 381.604492 414.015686 381.29538 413.750763 381.29538 C 413.529968 381.29538 413.309174 381.604492 413.309174 381.957733 Z"/>
        <path id="path17" fill="#000000" stroke="none" d="M 89.638634 384.386383 C 89.638634 384.607147 89.947739 384.827942 90.300987 384.827942 C 90.654251 384.827942 90.963341 384.607147 90.963341 384.386383 C 90.963341 384.121429 90.654251 383.944794 90.300987 383.944794 C 89.947739 383.944794 89.638634 384.121429 89.638634 384.386383 Z"/>
        <path id="path18" fill="#000000" stroke="none" d="M 399.708832 384.342224 C 399.79715 384.651306 400.017944 384.872101 400.19458 384.872101 C 400.724457 384.827942 400.59198 384.209747 400.062103 383.988953 C 399.752991 383.900635 399.576355 384.077271 399.708832 384.342224 Z"/>
        <path id="path19" fill="#000000" stroke="none" d="M 418.431396 388.228027 C 417.945679 388.713745 418.166443 389.243622 418.828796 389.243622 C 419.182037 389.243622 419.49115 389.067017 419.49115 388.846252 C 419.49115 388.272186 418.784637 387.874786 418.431396 388.228027 Z"/>
        <path id="path20" fill="#000000" stroke="none" d="M 100.324631 392.864502 C 99.573959 393.615173 99.662277 394.100891 100.633713 394.100891 C 101.075294 394.100891 101.561028 393.703491 101.693481 393.217773 C 101.95842 392.246338 101.163605 392.025513 100.324631 392.864502 Z"/>
        <path id="path21" fill="#000000" stroke="none" d="M 389.111176 394.93988 C 389.199463 395.248993 389.420288 395.469788 389.596893 395.469788 C 390.12677 395.425598 389.994293 394.807434 389.464417 394.586639 C 389.155334 394.498322 388.978699 394.674957 389.111176 394.93988 Z"/>
        <path id="path22" fill="#000000" stroke="none" d="M 402.490753 401.563416 C 402.181641 402.093323 403.02063 402.623199 403.594635 402.269958 C 404.080383 401.960846 403.771271 401.166016 403.153107 401.166016 C 402.932281 401.166016 402.667358 401.342651 402.490753 401.563416 Z"/>
        <path id="path23" fill="#000000" stroke="none" d="M 110.922302 403.462189 C 110.171631 404.21283 110.259949 404.698578 111.231384 404.698578 C 111.672966 404.698578 112.158699 404.301147 112.291153 403.81543 C 112.556091 402.843994 111.761276 402.623199 110.922302 403.462189 Z"/>
        <path id="path24" fill="#000000" stroke="none" d="M 371.360077 405.40509 C 370.83017 406.24408 370.476929 407.083069 370.609406 407.215515 C 370.962646 407.524628 373.082184 405.096008 373.126343 404.345337 C 373.126343 403.329712 372.331543 403.81543 371.360077 405.40509 Z"/>
        <path id="path25" fill="#000000" stroke="none" d="M 376.04071 404.168701 C 375.908234 404.433655 375.996552 404.786896 376.261475 404.919373 C 376.923828 405.360931 377.365417 404.786896 376.791351 404.21283 C 376.4823 403.903748 376.217346 403.903748 376.04071 404.168701 Z"/>
        <path id="path26" fill="#000000" stroke="none" d="M 376.968018 407.392151 C 376.128998 408.319458 375.996552 409.114258 376.614746 409.114258 C 377.144653 409.114258 378.425171 407.83374 378.425171 407.347992 C 378.425171 406.509033 377.67453 406.553162 376.968018 407.392151 Z"/>
        <path id="path27" fill="#000000" stroke="none" d="M 372.066589 409.335052 C 371.889954 409.864929 372.02243 410.041565 372.552307 409.909119 C 373.347137 409.776611 373.479584 409.02594 372.773071 408.761017 C 372.552307 408.716858 372.243195 408.937653 372.066589 409.335052 Z"/>
        <path id="path28" fill="#000000" stroke="none" d="M 366.502777 411.322113 C 366.502777 411.542908 366.81189 411.763672 367.165131 411.763672 C 367.518402 411.763672 367.827484 411.542908 367.827484 411.322113 C 367.827484 411.05719 367.518402 410.880554 367.165131 410.880554 C 366.81189 410.880554 366.502777 411.05719 366.502777 411.322113 Z"/>
        <path id="path29" fill="#000000" stroke="none" d="M 122.756371 412.426025 C 122.756371 412.779297 122.579742 413.088379 122.314781 413.088379 C 122.094009 413.088379 121.873222 413.309174 121.873222 413.529968 C 121.873222 413.794922 122.358948 413.662445 122.977142 413.265015 C 123.595345 412.867615 123.948601 412.381897 123.816116 412.161102 C 123.462868 411.542908 122.756371 411.719543 122.756371 412.426025 Z"/>
        <path id="path30" fill="#000000" stroke="none" d="M 381.516174 413.750732 C 381.516174 414.104004 381.736938 414.413086 381.957764 414.413086 C 382.222656 414.413086 382.399292 414.104004 382.399292 413.750732 C 382.399292 413.397491 382.222656 413.088379 381.957764 413.088379 C 381.736938 413.088379 381.516174 413.397491 381.516174 413.750732 Z"/>
        <path id="path31" fill="#000000" stroke="none" d="M 394.321686 414.633911 C 394.321686 414.987152 394.54248 415.296265 394.763275 415.296265 C 395.028229 415.296265 395.204834 414.987152 395.204834 414.633911 C 395.204834 414.28064 395.028229 413.971558 394.763275 413.971558 C 394.54248 413.971558 394.321686 414.28064 394.321686 414.633911 Z"/>
        <path id="path32" fill="#000000" stroke="none" d="M 157.287109 420.197662 C 157.375427 420.462616 157.640366 420.639252 157.86116 420.639252 C 158.081924 420.639252 158.346878 420.462616 158.435196 420.197662 C 158.523514 419.932739 158.258545 419.711945 157.86116 419.711945 C 157.46373 419.711945 157.198807 419.932739 157.287109 420.197662 Z"/>
        <path id="path33" fill="#000000" stroke="none" d="M 386.594238 420.197662 C 386.152649 420.860016 386.726685 421.301605 387.300751 420.727539 C 387.609833 420.418457 387.609833 420.153503 387.344879 419.976868 C 387.079956 419.844421 386.726685 419.932739 386.594238 420.197662 Z"/>
        <path id="path34" fill="#000000" stroke="none" d="M 143.951706 424.348419 C 143.951706 424.701691 144.172485 425.010773 144.39328 425.010773 C 144.658203 425.010773 144.834839 424.701691 144.834839 424.348419 C 144.834839 423.995178 144.658203 423.686066 144.39328 423.686066 C 144.172485 423.686066 143.951706 423.995178 143.951706 424.348419 Z"/>
        <path id="path35" fill="#000000" stroke="none" d="M 377.100464 424.348419 C 377.100464 424.74585 377.321259 425.010773 377.586182 424.922485 C 377.851135 424.834167 378.07193 424.569214 378.07193 424.348419 C 378.07193 424.127625 377.851135 423.862701 377.586182 423.774384 C 377.321259 423.686066 377.100464 423.951019 377.100464 424.348419 Z"/>
        <path id="path36" fill="#000000" stroke="none" d="M 374.671844 425.010773 C 374.230286 425.717285 374.980957 426.379639 375.687469 425.93808 C 376.128998 425.673157 376.128998 425.496521 375.599121 425.054932 C 375.157593 424.657532 374.892639 424.657532 374.671844 425.010773 Z"/>
        <path id="path37" fill="#000000" stroke="none" d="M 171.770599 425.673157 C 171.770599 426.026398 172.079681 426.33551 172.432953 426.33551 C 172.786209 426.33551 173.095306 426.026398 173.095306 425.673157 C 173.095306 425.319885 172.786209 425.010773 172.432953 425.010773 C 172.079681 425.010773 171.770599 425.319885 171.770599 425.673157 Z"/>
        <path id="path38" fill="#000000" stroke="none" d="M 168.017242 426.73291 C 167.70816 427.262787 169.386124 427.836823 170.004303 427.439392 C 170.269257 427.262787 170.357574 426.953674 170.225098 426.73291 C 169.871841 426.203003 168.370514 426.203003 168.017242 426.73291 Z"/>
        <path id="path39" fill="#000000" stroke="none" d="M 138.917816 430.618713 C 138.432083 431.104431 138.652878 431.634338 139.315231 431.634338 C 139.668472 431.634338 139.977585 431.457703 139.977585 431.236908 C 139.977585 430.662872 139.271057 430.265472 138.917816 430.618713 Z"/>
        <path id="path40" fill="#000000" stroke="none" d="M 336.476074 430.971985 C 336.476074 431.369385 336.696838 431.634338 336.961792 431.546021 C 337.226746 431.457703 337.44754 431.192749 337.44754 430.971985 C 337.44754 430.75119 337.226746 430.486237 336.961792 430.397949 C 336.696838 430.309631 336.476074 430.574554 336.476074 430.971985 Z"/>
        <path id="path41" fill="#000000" stroke="none" d="M 345.307434 430.971985 C 345.307434 431.325226 345.528259 431.634338 345.749023 431.634338 C 346.013977 431.634338 346.190613 431.325226 346.190613 430.971985 C 346.190613 430.618713 346.013977 430.309631 345.749023 430.309631 C 345.528259 430.309631 345.307434 430.618713 345.307434 430.971985 Z"/>
        <path id="path42" fill="#000000" stroke="none" d="M 330.735657 432.252533 C 330.735657 432.649933 331.044739 432.959045 331.4422 432.959045 C 331.8396 432.959045 332.060364 432.738251 331.972076 432.429138 C 331.707092 431.634338 330.735657 431.501831 330.735657 432.252533 Z"/>
        <path id="path43" fill="#000000" stroke="none" d="M 154.814316 434.592834 C 154.328583 435.078552 154.549377 435.608459 155.211731 435.608459 C 155.564987 435.608459 155.874084 435.431824 155.874084 435.211029 C 155.874084 434.636993 155.167572 434.239594 154.814316 434.592834 Z"/>
        <path id="path44" fill="#000000" stroke="none" d="M 349.723145 434.946106 C 349.723145 435.299347 349.943939 435.608459 350.164734 435.608459 C 350.429657 435.608459 350.606293 435.299347 350.606293 434.946106 C 350.606293 434.592834 350.429657 434.283752 350.164734 434.283752 C 349.943939 434.283752 349.723145 434.592834 349.723145 434.946106 Z"/>
        <path id="path45" fill="#000000" stroke="none" d="M 364.383301 435.16687 C 364.074188 435.696777 363.941711 436.270813 364.074188 436.491577 C 364.339111 436.933167 366.061249 435.431824 366.061249 434.725311 C 366.061249 433.930481 364.957306 434.239594 364.383301 435.16687 Z"/>
        <path id="path46" fill="#000000" stroke="none" d="M 200.9142 436.050018 C 200.9142 436.270813 201.223282 436.491577 201.576553 436.491577 C 201.929794 436.491577 202.238907 436.270813 202.238907 436.050018 C 202.238907 435.785095 201.929794 435.608459 201.576553 435.608459 C 201.223282 435.608459 200.9142 435.785095 200.9142 436.050018 Z"/>
        <path id="path47" fill="#000000" stroke="none" d="M 148.853134 437.109802 C 148.455719 437.59552 148.544022 437.772156 149.250549 437.948761 C 150.221985 438.213715 150.796021 437.639679 150.354462 436.933167 C 149.957047 436.314972 149.471313 436.359131 148.853134 437.109802 Z"/>
        <path id="path48" fill="#000000" stroke="none" d="M 360.320831 438.478638 C 360.320831 438.831909 360.541595 439.140991 360.762421 439.140991 C 361.027344 439.140991 361.203949 438.831909 361.203949 438.478638 C 361.203949 438.125397 361.027344 437.816284 360.762421 437.816284 C 360.541595 437.816284 360.320831 438.125397 360.320831 438.478638 Z"/>
        <path id="path49" fill="#000000" stroke="none" d="M 211.732635 438.655273 C 211.423553 439.185181 212.262527 439.715057 212.836578 439.361786 C 213.322296 439.052704 213.013199 438.257874 212.394989 438.257874 C 212.174225 438.257874 211.909256 438.434509 211.732635 438.655273 Z"/>
        <path id="path50" fill="#000000" stroke="none" d="M 203.563614 440.024139 C 203.563614 440.244934 203.961014 440.465729 204.490906 440.465729 C 204.976639 440.465729 205.241577 440.244934 205.109085 440.024139 C 204.976639 439.759216 204.535049 439.582581 204.181793 439.582581 C 203.828552 439.582581 203.563614 439.759216 203.563614 440.024139 Z"/>
        <path id="path51" fill="#000000" stroke="none" d="M 306.8909 441.6138 C 306.8909 442.364471 307.862335 442.231995 308.127319 441.437164 C 308.215607 441.128082 307.994812 440.907288 307.597443 440.907288 C 307.199982 440.907288 306.8909 441.21637 306.8909 441.6138 Z"/>
        <path id="path52" fill="#000000" stroke="none" d="M 310.865021 441.525482 C 310.865021 441.967041 311.262451 442.231995 311.792328 442.231995 C 312.852081 442.231995 312.719635 441.21637 311.615692 440.995605 C 311.174133 440.907288 310.865021 441.128082 310.865021 441.525482 Z"/>
        <path id="path53" fill="#000000" stroke="none" d="M 201.797318 441.790436 C 201.797318 442.0112 202.10643 442.231995 202.459671 442.231995 C 202.812943 442.231995 203.122025 442.0112 203.122025 441.790436 C 203.122025 441.525482 202.812943 441.348846 202.459671 441.348846 C 202.10643 441.348846 201.797318 441.525482 201.797318 441.790436 Z"/>
        <path id="path54" fill="#000000" stroke="none" d="M 174.729095 443.821655 C 174.375854 444.174896 174.77327 444.881409 175.347305 444.881409 C 175.5681 444.881409 175.74472 444.572327 175.74472 444.219055 C 175.74472 443.556702 175.214828 443.335907 174.729095 443.821655 Z"/>
        <path id="path55" fill="#000000" stroke="none" d="M 345.395782 445.278809 C 345.572418 445.852875 346.190613 445.985352 346.234772 445.455444 C 346.234772 445.278809 346.013977 445.058044 345.749023 444.925568 C 345.439911 444.83728 345.263306 445.013885 345.395782 445.278809 Z"/>
        <path id="path56" fill="#000000" stroke="none" d="M 337.182556 449.25296 C 336.829315 449.782837 337.977386 450.180237 338.639771 449.738678 C 339.081329 449.517883 338.993011 449.341248 338.463135 449.120483 C 337.535828 448.767242 337.44754 448.767242 337.182556 449.25296 Z"/>
        <path id="path57" fill="#000000" stroke="none" d="M 202.327209 455.876495 C 202.503845 456.450531 203.122025 456.583008 203.166199 456.053131 C 203.166199 455.876495 202.945404 455.655701 202.680466 455.523254 C 202.371368 455.434937 202.194733 455.611572 202.327209 455.876495 Z"/>
        <path id="path58" fill="#000000" stroke="none" d="M 218.135406 456.141449 C 218.135406 456.49469 218.356186 456.803802 218.576965 456.803802 C 218.841904 456.803802 219.018539 456.49469 219.018539 456.141449 C 219.018539 455.788177 218.841904 455.479095 218.576965 455.479095 C 218.356186 455.479095 218.135406 455.788177 218.135406 456.141449 Z"/>
        <path id="path59" fill="#000000" stroke="none" d="M 207.758514 456.803802 C 207.31694 457.554474 208.288406 458.437592 208.862442 457.863556 C 209.215698 457.510315 209.12738 457.201202 208.685822 456.847961 C 208.244232 456.450531 207.979294 456.450531 207.758514 456.803802 Z"/>
        <path id="path60" fill="#000000" stroke="none" d="M 303.181732 457.201202 C 303.049225 457.421997 303.225861 457.686951 303.579102 457.863556 C 304.241455 458.12851 304.85968 457.554474 304.373962 457.068726 C 303.976563 456.671326 303.446686 456.715485 303.181732 457.201202 Z"/>
        <path id="path61" fill="#000000" stroke="none" d="M 307.111694 459.894775 C 306.979218 460.11557 307.244141 460.336365 307.774048 460.336365 C 308.303925 460.336365 308.568848 460.11557 308.436401 459.894775 C 308.303925 459.629852 307.994812 459.453217 307.774048 459.453217 C 307.553253 459.453217 307.244141 459.629852 307.111694 459.894775 Z"/>
        <path id="path62" fill="#000000" stroke="none" d="M 296.293213 461.440277 C 296.293213 461.837677 296.514038 462.102631 296.778931 462.014313 C 297.043915 461.925995 297.264679 461.661072 297.264679 461.440277 C 297.264679 461.219482 297.043915 460.954559 296.778931 460.866241 C 296.514038 460.777924 296.293213 461.042847 296.293213 461.440277 Z"/>
    </g>
</svg>
