<?xml version="1.0" encoding="UTF-8"?>
<!-- Generated by Pixelmator Pro 3.8 -->
<svg width="2250" height="2331" viewBox="0 0 2250 2331" xmlns="http://www.w3.org/2000/svg">
    <g id="Gruppo">
        <path id="Percorso" fill="#919191" stroke="none" d="M 1100.866699 4.866699 C 1086.466675 9.666748 1083.133301 11.399902 1073.666626 19 C 1070.333374 21.666748 1064.599976 25.666748 1060.866699 27.93335 C 1057.133301 30.199951 1048.733276 36.06665 1042.199951 40.866699 C 1035.666626 45.666748 1025.266724 52.466553 1019 55.93335 C 1012.733276 59.399902 1004.06665 65.266602 999.666626 69 C 989.666626 77.399902 982.333374 82.333252 970.466675 88.733398 C 965.266724 91.533447 958.733276 95.666748 955.800049 97.93335 C 951.266724 101.533447 940.599976 107.93335 927 115.266602 C 924.466675 116.600098 918.333313 121.533447 913.533325 126.199951 C 907.533325 131.93335 900.333313 137 891.533325 141.800049 C 884.200012 145.533447 876.599976 150.333252 874.333313 152.333252 C 867.533325 158.466553 837.666687 180.199951 832.466675 183 C 829.666687 184.333252 826.599976 186.466553 825.533325 187.800049 C 821.93335 192.06665 809.666687 200.466553 799.93335 205 C 794.733337 207.533447 787.93335 211.399902 785 213.533447 C 782.06665 215.666748 772.733337 222.199951 764.333313 227.93335 C 750.733337 237.133301 736.06665 248.600098 729.666687 255 C 728.466675 256.199951 722.733337 259.800049 716.866638 263 C 711.133362 266.199951 703.799988 271 700.866638 273.800049 C 697.799988 276.466553 693.266663 279.800049 690.866638 281 C 688.333313 282.333252 684.866638 284.733398 683 286.333252 C 681.133362 288.06665 677 290.466553 673.666687 291.800049 C 659 297.400024 653.133362 305.666626 651 323.666626 C 650.06665 331.666626 649.400024 407.266724 649.133362 547 C 648.733337 706.466675 648.200012 761.93335 647 773 C 645.266663 788.06665 645.533325 797.666626 650.333313 870.466675 L 651.93335 895.93335 L 657.400024 907.400024 C 660.333313 913.533325 667.133362 924.599976 672.466675 931.666626 C 680.866638 943 683 945 689.400024 947.93335 C 693.533325 949.666626 698.599976 952.466675 700.733337 953.93335 C 703.666687 956.06665 707.799988 957 717 957.800049 C 723.799988 958.333374 733.799988 960.199951 739.266663 961.93335 C 748.733337 964.866699 750.333313 965 801 965 C 829.666687 965 986.466675 964.866699 1149.666626 964.866699 C 1312.866699 964.866699 1459.533325 964.866699 1475.666626 964.866699 C 1500.866699 964.866699 1506.599976 964.466675 1516.333374 962.06665 C 1522.599976 960.466675 1529.800049 958.866699 1532.333374 958.466675 C 1537.800049 957.533325 1559.400024 949.266724 1563.666626 946.466675 C 1569.800049 942.466675 1591 906.733276 1591 900.466675 C 1591 898.866699 1593 892.06665 1595.400024 885.266724 L 1599.666626 873 L 1599.93335 789.666626 C 1600.06665 743.800049 1600.199951 621.800049 1600.333374 518.599976 C 1600.333374 356.333374 1600.06665 330.333374 1598.466675 327.266724 C 1597.400024 325.266724 1594.866699 319.533325 1593 314.466675 C 1588.599976 303.266724 1583.93335 296.599976 1575.533325 289.93335 C 1571.93335 287.133301 1568.199951 283.800049 1567.133301 282.600098 C 1566.199951 281.266602 1564.599976 280.333252 1563.666626 280.333252 C 1562.733276 280.333252 1559 278.06665 1555.400024 275.266602 C 1551.93335 272.466553 1544.866699 267.93335 1539.800049 265.133301 C 1526.866699 258.06665 1510.333374 247 1501 239.133301 C 1496.733276 235.399902 1492.466675 232.333252 1491.666626 232.333252 C 1488.599976 232.333252 1469.800049 220.199951 1463.400024 214.06665 C 1459.400024 210.199951 1453.666626 206.466553 1448.866699 204.466553 C 1444.599976 202.733398 1439.266724 199.666748 1437 197.666748 C 1434.866699 195.666748 1431.533325 193.266602 1429.666626 192.333252 C 1425.533325 190.199951 1420.466675 186.466553 1413 179.800049 C 1409.666626 177 1404.06665 173.133301 1400.466675 171.133301 C 1391.666626 166.466553 1379.400024 158.199951 1373.533325 153 C 1370.866699 150.600098 1364.333374 146.600098 1358.866699 143.93335 C 1353.400024 141.266602 1346.06665 136.466553 1342.333374 133.133301 C 1333.93335 125.399902 1325.93335 119.666748 1309 109.266602 C 1301.533325 104.733398 1292.733276 98.600098 1289.266724 95.666748 C 1285.800049 92.866699 1280.06665 88.733398 1276.333374 86.733398 C 1272.599976 84.733398 1265 79.266602 1259.266724 74.600098 C 1246.333374 64.06665 1235.133301 56.466553 1224.199951 50.866699 C 1214.199951 45.93335 1206.199951 40.600098 1197 33 C 1193.400024 29.93335 1188.466675 26.333252 1186.06665 24.866699 C 1167.533325 13.666748 1160.599976 9.800049 1157.666626 9 C 1155.800049 8.466553 1151 6.466553 1147 4.466553 C 1140.866699 1.666748 1137.533325 1 1127 0.733398 C 1115.666626 0.466553 1112.866699 0.866699 1100.866699 4.866699 Z"/>
        <path id="path1" fill="#919191" stroke="none" d="M 1921 47.133301 C 1915.93335 47.800049 1910.733276 48.466553 1909.666626 48.600098 C 1908.599976 48.866699 1906.333374 50.333252 1904.599976 51.93335 C 1903 53.666748 1900.199951 55 1898.333374 55 C 1893.400024 55 1879 62.733398 1873.266724 68.600098 C 1870.733276 71 1867 78.333252 1867 80.733398 C 1867 81.800049 1865.533325 84.733398 1863.800049 87.399902 C 1857.133301 97.133301 1855.666626 107.399902 1855.93335 140.333252 L 1856.199951 170.466553 L 1860.333374 179.666748 C 1865.266724 190.466553 1868.333374 199.800049 1868.333374 203.800049 C 1868.333374 205.399902 1870.06665 210.06665 1872.199951 214.06665 C 1874.333374 218.06665 1876.599976 224.06665 1877.400024 227.266602 C 1878.06665 230.333252 1880.599976 237.133301 1882.733276 242.333252 C 1891.666626 262.866699 1896.06665 274.600098 1896.866699 280.199951 C 1897.400024 283.399902 1899.533325 290.600098 1901.666626 296.199951 C 1904.466675 303.400024 1905.93335 310.466675 1906.866699 320.733276 C 1907.93335 332.466675 1908.733276 336.199951 1911.666626 341.266724 C 1914.599976 346.199951 1915.533325 349.800049 1916.333374 360.199951 C 1917 368.333374 1919.133301 379 1922.199951 389.400024 C 1925.93335 402.199951 1927 408.333374 1927 416.333374 C 1927 430.06665 1929.133301 445.266724 1932.733276 457.666626 C 1935.666626 467.533325 1935.666626 468.733276 1935.666626 569 L 1935.666626 670.333374 L 1931.93335 680.333374 C 1929 688.199951 1927.93335 694.199951 1926.866699 708.199951 C 1926.06665 720.733276 1924.599976 729.400024 1922.199951 736.866699 C 1920.199951 743.400024 1918.333374 753.533325 1917.533325 762.333374 C 1916.06665 780.06665 1915.666626 782.333374 1912.199951 786.866699 C 1910.466675 789.266724 1909.133301 794.199951 1908.199951 802.866699 C 1907.400024 809.93335 1905.266724 819.266724 1903.400024 824.199951 C 1901.533325 829 1898.866699 836.866699 1897.533325 841.666626 C 1895.266724 849.666626 1888.733276 870.06665 1885.400024 879.666626 C 1884.599976 881.800049 1882.866699 887.266724 1881.400024 891.666626 C 1880.06665 896.06665 1877 903.800049 1874.733276 909 C 1872.599976 914.06665 1869.666626 921.666626 1868.333374 925.666626 C 1867.133301 929.666626 1864.466675 935.93335 1862.466675 939.666626 C 1859.533325 945.266724 1858.733276 949.400024 1857.266724 965 C 1854.466675 997 1856.06665 1011.266724 1863.800049 1023 C 1865.533325 1025.533325 1867.666626 1029.800049 1868.466675 1032.333374 C 1869.400024 1034.866699 1871.800049 1039.133301 1874.06665 1041.666626 C 1880.599976 1049.533325 1899 1065.266724 1906.199951 1069.266724 L 1913 1073 L 1940.333374 1073 C 1965.266724 1073 1968.466675 1072.733276 1975.93335 1069.93335 C 1980.466553 1068.333374 1985 1067 1985.93335 1067 C 1986.866699 1067 1991.399902 1065.266724 1995.800049 1063.133301 C 2004.600098 1059 2021.93335 1042.866699 2025.666748 1035.533325 C 2026.733398 1033.400024 2029.800049 1027.800049 2032.466553 1023 C 2035.133301 1018.199951 2038.06665 1011.93335 2039 1009 C 2039.93335 1006.06665 2041.666748 1002.466675 2043 1001 C 2044.333252 999.533325 2046.06665 995.93335 2047 993 C 2047.93335 990.06665 2050.733398 983.133301 2053.133301 977.666626 C 2055.533447 972.199951 2058.06665 964.199951 2058.866699 959.800049 C 2059.666748 955.533325 2061.533447 950.06665 2063.133301 947.533325 C 2064.600098 945 2066.466553 939 2067.133301 934.06665 C 2067.800049 929 2070.06665 921.400024 2072.333252 917 C 2074.466553 912.599976 2076.866699 905.400024 2077.666748 901 C 2078.600098 896.599976 2080.733398 890.333374 2082.600098 887.133301 C 2085.133301 882.733276 2086.333252 878.06665 2087.266602 869.133301 C 2088.06665 861.133301 2089.399902 855.666626 2091.133301 852.733276 C 2095.133301 846.333374 2096.333252 841.133301 2097.533447 826.333374 C 2098.333252 815.93335 2099.266602 811.266724 2102.06665 805.666626 C 2105 799.666626 2105.93335 795.133301 2107.133301 780.333374 C 2108.333252 766.06665 2109.399902 761 2111.93335 755.93335 C 2115.800049 748.199951 2117.666748 733.93335 2117.666748 712.199951 C 2117.666748 700.466675 2118.333252 694.733276 2120.333252 688.466675 C 2126.466553 669.133301 2126.866699 663 2127.666748 567 C 2128.600098 469.533325 2128.199951 459 2122.466553 439.266724 C 2119.666748 429.133301 2119 423.133301 2117.800049 393.533325 C 2116.600098 362.599976 2116.06665 358.466675 2113 348.866699 C 2110.600098 341.533325 2109.533447 335.533325 2109.533447 329 C 2109.533447 319.666626 2106.866699 307.400024 2103.666748 302.333374 C 2102.733398 300.866699 2101.266602 296.06665 2100.333252 291.666748 C 2097.133301 275.133301 2096.06665 271.93335 2093.133301 267.800049 C 2090.866699 264.866699 2089.266602 259.800049 2087.800049 250.733398 C 2086.600098 243.533447 2084.333252 235 2082.866699 231.666748 C 2081.399902 228.333252 2079.533447 221.800049 2078.866699 217.266602 C 2077.533447 208.866699 2075.533447 202.333252 2071.800049 193.399902 C 2070.600098 190.600098 2069.666748 187 2069.666748 185.266602 C 2069.666748 183.533447 2067.800049 178.600098 2065.666748 174.466553 C 2063.399902 170.199951 2060.866699 163.399902 2060.199951 159.266602 C 2059.399902 155.133301 2057.266602 149 2055.399902 145.800049 C 2053.533447 142.466553 2050.866699 135.266602 2049.666748 129.533447 C 2048.333252 123.800049 2046.199951 117.533447 2044.733398 115.399902 C 2043.266602 113.399902 2041.666748 108.866699 2041.133301 105.266602 C 2040.333252 99.93335 2040.466553 99 2042.333252 99 C 2043.800049 99 2044.333252 98.333252 2043.800049 97 C 2043 94.866699 2047.266602 89.666748 2049.666748 89.666748 C 2050.333252 89.666748 2052.866699 91.800049 2055.133301 94.333252 C 2062.333252 102.199951 2072.866699 99.533447 2068.333252 91 C 2066.600098 87.800049 2067.800049 85.133301 2070.466553 86.199951 C 2071.800049 86.733398 2072.333252 85.93335 2072.333252 83.399902 C 2072.333252 80.333252 2071.93335 80.06665 2067.93335 80.733398 C 2063.533447 81.399902 2063.399902 81.399902 2063.533447 76.199951 C 2063.666748 72.199951 2064.199951 71 2066.06665 71 C 2067.800049 71 2068.333252 69.93335 2068.333252 66.06665 L 2068.333252 61.133301 L 2065.666748 64.06665 C 2064.199951 65.666748 2063 67.533447 2063 68.333252 C 2063 69 2062.06665 69.666748 2061 69.666748 C 2059.93335 69.666748 2059 70.866699 2059 72.333252 C 2059 73.800049 2059.666748 75 2060.333252 75 C 2061.133301 75 2061.666748 76.06665 2061.666748 77.266602 C 2061.666748 79.399902 2061.266602 79.399902 2059.266602 76.866699 C 2056.466553 73.533447 2046.199951 72.333252 2047.399902 75.533447 C 2048.333252 77.800049 2044.333252 81.666748 2041.133301 81.666748 C 2039.533447 81.666748 2039 82.333252 2039.399902 83.666748 C 2039.93335 84.733398 2039.800049 85.93335 2039.133301 86.199951 C 2037.266602 87.399902 2032.333252 83 2032.333252 80.06665 C 2032.333252 78.333252 2031.666748 77.666748 2030.466553 78.06665 C 2029.266602 78.600098 2025.533447 75.93335 2020.866699 71.399902 C 2012.06665 62.733398 2002.333252 55.93335 1995.666748 53.666748 C 1993.133301 52.866699 1990.733398 51.533447 1990.333252 51 C 1989.93335 50.333252 1987.266602 49.133301 1984.600098 48.466553 C 1977.666748 46.600098 1932.199951 45.666748 1921 47.133301 Z"/>
        <path id="path2" fill="#919191" stroke="none" d="M 267.799988 49.800049 C 264.866669 50.466553 261.933319 51.533447 261.133331 52.199951 C 260.333344 52.866699 257.399994 54.06665 254.600006 55 C 245.799988 57.800049 238.866669 62.466553 235.133331 68.199951 C 233 71.266602 228.866669 75.533447 225.799988 77.800049 C 219.799988 82.333252 215.799988 88.866699 214.333344 96.733398 C 213.799988 99.399902 211.666656 104.333252 209.533325 107.666748 C 207 111.800049 205.133331 116.866699 204.200012 123.399902 C 203.399994 128.866699 201.799988 134.06665 200.333344 135.666748 C 196.866669 139.533447 195.266663 143.266602 193.666656 150.466553 C 192.866669 154.06665 190.866669 159.666748 189.133331 163 C 187.266663 166.333252 185.533325 171.399902 185 174.333252 C 184.466675 177.266602 182.333328 183 180.333328 187 C 178.333328 191 175.666672 198.199951 174.46666 203 C 173.266663 207.666748 170.733337 214.06665 169 217.133301 C 166.600006 221.266602 165.53334 225.533447 164.866669 233.800049 C 164.199997 242.199951 163.133331 246.866699 160.333328 252.466553 C 158.199997 256.733398 155.933334 263.800049 155.266663 269.266602 C 154.46666 274.333252 152.46666 281.800049 150.600006 285.800049 C 148.46666 290.199951 146.600006 297.666626 145.666672 305 C 144.866669 311.533325 142.733337 321.800049 141 327.666626 C 137.133331 340.866699 136.600006 344.06665 135 368.333374 C 134.066666 383.133301 133 390.199951 130.333328 398.333374 C 127.266663 407.533325 126.600006 412.466675 125.666672 433.666626 C 125 447.266724 123.266663 466.733276 121.666672 477 C 119.133331 494.06665 118.866669 501.533325 118.600006 563 C 118.333328 630.199951 118.333328 630.333374 121.53334 641 C 123.933334 649.400024 124.866669 656.599976 125.800003 675.666626 C 126.733337 698.199951 128.600006 710.199951 132.46666 719.666626 C 133.266663 721.93335 134.46666 733.533325 135 745.666626 C 136.066666 767.666626 137.666672 777.533325 141.399994 784.866699 C 142.46666 787.133301 144.199997 794.599976 145.133331 801.666626 C 146.199997 809.400024 148.333328 817.533325 150.46666 822.199951 C 152.866669 827.533325 154.199997 833.400024 155 842.06665 C 156.199997 855.133301 157.399994 859.533325 161.53334 865.400024 C 163.399994 867.93335 164.333328 872.333374 165 881 C 165.53334 890.199951 166.733337 894.866699 169.53334 901 C 171.666672 905.400024 173.800003 912.599976 174.333328 917 C 174.866669 921.400024 177.266663 929.533325 179.800003 935.133301 C 182.333328 940.733276 184.333344 946.466675 184.333344 947.93335 C 184.333344 949.400024 186.466675 954.599976 189 959.400024 C 191.533325 964.199951 193.666656 969.266724 193.666656 970.466675 C 193.666656 971.800049 195.399994 975.93335 197.533325 979.666626 C 199.666656 983.400024 202.733337 991 204.333344 996.333374 C 205.933319 1001.800049 208.466675 1007.800049 209.799988 1009.533325 C 211.266663 1011.266724 212.733337 1015.133301 213.266663 1018.06665 C 214.200012 1024.06665 218.600006 1030.733276 230.866669 1044.599976 C 239.133331 1053.93335 244.466675 1058.199951 260.333344 1068.333374 L 267.666656 1073 L 291.666656 1073 L 315.666656 1072.866699 L 324.333344 1068.733276 C 329.133331 1066.599976 335.399994 1063.93335 338.333344 1063 C 345 1060.866699 353.799988 1055.800049 357.133331 1052.199951 C 358.466675 1050.599976 361.133331 1048.599976 363 1047.666626 C 368.333344 1044.866699 380.333344 1021.93335 381.933319 1011.133301 C 382.733337 1006.333374 384.200012 1000.199951 385.399994 997.666626 C 388.466675 990.866699 388.866669 980.733276 386.333344 972.333374 C 385.133331 968.333374 383.399994 958.466675 382.333344 950.599976 C 380.866669 939.266724 379.533325 934.466675 376.466675 929.266724 C 374.333344 925.400024 371.533325 918.733276 370.200012 914.333374 C 369 909.93335 367.133331 905.133301 366.200012 903.666626 C 365.266663 902.199951 363.533325 897.400024 362.466675 893.133301 C 361.266663 888.866699 358.600006 880.733276 356.466675 875.133301 C 354.333344 869.533325 352.200012 862.599976 351.666656 859.666626 C 351.133331 856.733276 349.266663 850.733276 347.399994 846.333374 C 345.533325 841.93335 343.266663 833.133301 342.333344 826.599976 C 341.266663 820.06665 339.266663 812.333374 337.666656 809.400024 C 336.066681 806.333374 334.333344 799.400024 333.666656 793.800049 C 333 787.800049 331 780.466675 328.866669 775.800049 C 325.399994 768.06665 321.799988 747.133301 321.666656 733.266724 C 321.666656 730.466675 320.200012 724.599976 318.333344 720.199951 C 315.399994 713.266724 314.733337 709.533325 314.200012 693.93335 C 313.533325 671.666626 311.533325 648.866699 309 633.666626 C 305.133331 610.466675 303.933319 586.866699 304.733337 544.333374 C 305.133331 521.266724 306.066681 498.733276 306.866669 494.333374 C 311.133331 469.93335 312.466675 457.800049 313.533325 433.400024 C 314.600006 410.733276 315.266663 405.400024 317.533325 400.199951 C 320.466675 393.533325 322.600006 381.133301 323.399994 365 C 323.933319 356.466675 324.866669 352.466675 328.066681 345.666626 C 331.133331 339.266724 332.600006 333.666626 333.533325 324.733276 C 334.466675 316.466675 335.933319 310.466675 338.200012 306.06665 C 340.066681 302.199951 342.066681 294.866699 343 288.333252 C 343.799988 282.199951 345.399994 275 346.333344 272.333252 C 347.266663 269.800049 349.933319 262.866699 352.066681 257 C 354.333344 251.133301 357.666656 243 359.533325 239 C 361.399994 235 363 230.733398 363 229.666748 C 363 228.600098 364.466675 225 366.066681 221.666748 C 367.799988 218.333252 370.333344 211.800049 371.666656 207 C 372.866669 202.199951 375.666656 195.133301 377.799988 191.133301 C 380.200012 186.600098 381.666656 181.93335 381.666656 178.466553 C 381.666656 172.866699 383.799988 163.93335 387.533325 154.333252 C 390.733337 145.93335 390.200012 129 386.466675 116.733398 C 384.733337 111 382.466675 103.133301 381.666656 99.266602 C 377.533325 81.133301 346.866669 54.600098 324.600006 49.800049 C 316.200012 48.06665 275.266663 48.06665 267.799988 49.800049 Z"/>
        <path id="path3" fill="#919191" stroke="none" d="M 1107.666626 1492.466675 C 1101.133301 1493.133301 1090.866699 1494.866699 1085 1496.333252 C 1079.133301 1497.666748 1070.466675 1499.533325 1065.800049 1500.333252 C 1061.133301 1501.133301 1054.06665 1503.533325 1050.199951 1505.666748 C 1045.93335 1507.93335 1039.93335 1509.800049 1034.733276 1510.333252 C 1030.06665 1510.866699 1023.400024 1512.733398 1019.93335 1514.599976 C 1016.333374 1516.333252 1009 1518.733398 1003.533325 1519.800049 C 998.06665 1520.733398 990.866699 1523 987.266724 1524.866699 C 983.800049 1526.599976 979.533325 1528.466675 977.666626 1529 C 975.93335 1529.533325 971.400024 1532.06665 967.93335 1534.466675 C 964.333374 1537 960.733276 1539 959.800049 1539 C 958.599976 1539 931.799988 1552.199951 900.333313 1568.466675 C 891 1573.266602 887.93335 1575.800049 883.666687 1582.199951 C 879.666687 1588.06665 877.133362 1599.800049 878.333313 1606.06665 C 879.400024 1610.866699 886.200012 1621.400024 890.333313 1624.333252 C 897.400024 1629.533325 903.533325 1636.06665 906.333313 1641.666748 C 909.799988 1648.466675 912.866638 1651 920.599976 1653.533325 C 925.133362 1655 926.200012 1654.866699 933.93335 1651 C 938.599976 1648.733398 947.799988 1643 954.333374 1638.199951 C 961 1633.400024 969 1628.333252 972.333374 1626.866699 C 975.666626 1625.400024 982.199951 1621.533325 987 1618.333252 C 992.06665 1614.866699 999.800049 1611.266602 1005.666626 1609.533325 C 1011.133301 1607.93335 1017.266724 1605.400024 1019.266724 1604.06665 C 1021.266724 1602.599976 1026.733276 1600.333252 1031.266724 1599 C 1035.93335 1597.666748 1043.93335 1595.133301 1049 1593.266602 C 1054.199951 1591.533325 1061.93335 1589.533325 1066.199951 1589 C 1070.599976 1588.466675 1077.533325 1586.599976 1081.533325 1584.733398 C 1089.400024 1581.133301 1097.93335 1580.333252 1148.333374 1578.199951 C 1174.06665 1577.133301 1222.06665 1580.466675 1232.333374 1584.06665 C 1236.333374 1585.533325 1245.133301 1587.400024 1251.666626 1588.199951 C 1271 1590.866699 1277.93335 1592.466675 1283.666626 1595.666748 C 1286.599976 1597.400024 1291.666626 1599.533325 1295 1600.333252 C 1302.466675 1602.333252 1325.133301 1611.93335 1329.666626 1615 C 1331.533325 1616.199951 1339.93335 1620.733398 1348.333374 1625.133301 C 1356.733276 1629.400024 1369 1636.466675 1375.400024 1640.866699 C 1390.866699 1651.133301 1397.533325 1652.466675 1412.333374 1648.06665 C 1422.733276 1644.866699 1432.733276 1632.866699 1435.666626 1620.06665 C 1436.733276 1615.266602 1438.199951 1609.666748 1439 1607.800049 C 1439.666626 1605.800049 1440.866699 1600.599976 1441.666626 1596.06665 C 1442.866699 1588.466675 1442.733276 1587.400024 1439.666626 1582.333252 C 1435.800049 1575.666748 1431.266724 1572.199951 1417 1564.333252 C 1411.133301 1561.266602 1404.866699 1557.666748 1403 1556.333252 C 1401.133301 1555.133301 1396.733276 1553 1393 1551.666748 C 1389.400024 1550.333252 1381.93335 1547 1376.466675 1544.199951 C 1371 1541.266602 1365.93335 1539 1365.133301 1539 C 1364.333374 1539 1359.533325 1537 1354.333374 1534.466675 C 1340.599976 1527.666748 1324.199951 1520.599976 1319.666626 1519.666748 C 1313.666626 1518.333252 1287.800049 1509.93335 1275.800049 1505.400024 C 1269.800049 1503.133301 1260.599976 1501 1254.466675 1500.333252 C 1248.333374 1499.666748 1239.666626 1497.666748 1234.333374 1495.533325 L 1225 1491.800049 L 1172.333374 1491.533325 C 1143.400024 1491.400024 1114.333374 1491.800049 1107.666626 1492.466675 Z"/>
        <path id="path4" fill="#919191" stroke="none" d="M 1126.333374 1620.333252 C 1120.466675 1620.866699 1113.533325 1622.333252 1111 1623.400024 C 1108.466675 1624.466675 1101.800049 1625.800049 1096.333374 1626.333252 C 1090.866699 1626.733398 1080.333374 1629.133301 1073 1631.666748 C 1065.666626 1634.06665 1056.333374 1636.466675 1052.333374 1637 C 1048.199951 1637.533325 1041.93335 1639.666748 1038.06665 1641.800049 C 1034.333374 1643.93335 1026.466675 1647.133301 1020.733276 1648.866699 C 1009.800049 1652.199951 1000.06665 1657.400024 982.333374 1669.400024 C 964.199951 1681.800049 954.866699 1694.466675 954.599976 1707.533325 C 954.466675 1716.466675 956.866699 1720.599976 967.93335 1731.133301 C 980.599976 1743 984.599976 1744.733398 998.466675 1744.06665 L 1009.533325 1743.666748 L 1015.93335 1737.400024 C 1020.06665 1733.400024 1027.666626 1728.599976 1037.666626 1723.666748 C 1046.06665 1719.400024 1054.599976 1714.599976 1056.599976 1712.866699 C 1058.599976 1711.266602 1063.800049 1709.133301 1067.93335 1708.333252 C 1075.400024 1706.866699 1079.533325 1705.533325 1085 1702.599976 C 1086.466675 1701.800049 1089.133301 1700.466675 1091 1699.533325 C 1092.866699 1698.599976 1102.466675 1697.533325 1112.333374 1697 C 1124.333374 1696.333252 1132.733276 1695.266602 1137.533325 1693.533325 C 1141.93335 1692.06665 1150.466675 1690.733398 1158.866699 1690.333252 C 1170.733276 1689.666748 1174.333374 1689.93335 1181.666626 1692.199951 C 1193.133301 1695.666748 1205.533325 1697.666748 1217 1697.666748 C 1223.666626 1697.666748 1227.93335 1698.466675 1231.533325 1700.199951 C 1239.133301 1704.199951 1243.93335 1705.666748 1256.199951 1707.800049 C 1262.866699 1709 1268.733276 1710.866699 1270.866699 1712.466675 C 1278.333374 1718.199951 1304.06665 1734.199951 1313 1738.466675 C 1321.533325 1742.599976 1323.266724 1743 1335.133301 1743 C 1349.666626 1743 1350.733276 1742.333252 1354.333374 1732.333252 C 1355.533325 1729 1358.733276 1722.466675 1361.533325 1717.666748 C 1367.93335 1707.133301 1368.866699 1702.599976 1366.866699 1694.466675 C 1365.666626 1689.666748 1363.800049 1686.866699 1358.599976 1682.199951 C 1354.866699 1678.866699 1349.533325 1675 1346.866699 1673.533325 C 1344.06665 1672.199951 1341.533325 1670.466675 1341.133301 1669.800049 C 1340.733276 1669.266602 1333.266724 1665.533325 1324.733276 1661.666748 C 1316.06665 1657.800049 1302.733276 1651.133301 1295 1646.866699 C 1287.266724 1642.599976 1276.599976 1637.93335 1271.133301 1636.466675 C 1265.800049 1635 1258.866699 1632.599976 1255.800049 1631.133301 C 1252.866699 1629.666748 1244.06665 1627.533325 1236.333374 1626.333252 C 1188.466675 1619.133301 1187.800049 1619 1162.333374 1619.133301 C 1148.466675 1619.266602 1132.199951 1619.800049 1126.333374 1620.333252 Z"/>
        <path id="path5" fill="#919191" stroke="none" d="M 444.599976 1663.533325 C 437.933319 1665.266602 431.533325 1667.400024 430.466675 1668.199951 C 428.866669 1669.533325 428.600006 1676.733398 429 1710.866699 C 429.266663 1737.533325 429.933319 1752.866699 430.866669 1754.733398 C 431.666656 1756.199951 434.333344 1758.199951 436.866669 1759 C 442.866638 1761 502.200012 1761 509.266663 1759.133301 C 518.200012 1756.599976 524.866638 1751.93335 525.799988 1747.666748 C 526.333313 1745.400024 526.733337 1732.06665 526.866638 1717.93335 C 527 1688.866699 525 1675.533325 519.666687 1670.199951 C 514.599976 1665.133301 507.666687 1663.93335 465 1661 C 459.400024 1660.599976 453.266663 1661.400024 444.599976 1663.533325 Z"/>
        <path id="path6" fill="#919191" stroke="none" d="M 2136.333252 1663 C 2119.266602 1664.06665 2112.199951 1665.93335 2108.06665 1670.466675 C 2102.866699 1676.466675 2102.600098 1685 2103.399902 1892.466675 L 2104.199951 2092.06665 L 2108.199951 2104.466553 C 2110.466553 2111.399902 2112.866699 2119.533447 2113.666748 2122.733398 C 2114.866699 2127.266602 2117.666748 2130.866699 2126.733398 2140.06665 C 2137.399902 2150.733398 2139.266602 2152.06665 2147.93335 2154.733398 C 2153.133301 2156.466553 2158.199951 2158.733398 2159.133301 2159.800049 C 2161.93335 2163.133301 2165.133301 2164.333252 2175.266602 2165.666748 C 2180.600098 2166.333252 2188.06665 2168.199951 2191.666748 2169.93335 C 2197.666748 2172.733398 2200.199951 2173 2216.466553 2172.866699 C 2233.666748 2172.733398 2235 2172.600098 2240.866699 2169.133301 C 2244.199951 2167.266602 2247.666748 2164.333252 2248.466553 2162.733398 C 2250.600098 2158.733398 2249.133301 2132.600098 2246.333252 2121.666748 C 2242.600098 2107.93335 2241.399902 2106.199951 2230.600098 2101 C 2210.733398 2091.266602 2206.600098 2087.800049 2204.333252 2079.266602 C 2203.533447 2075.800049 2201.266602 2068.733398 2199.533447 2063.533203 C 2194.06665 2047.266602 2193.399902 2033.400024 2195.133301 1968.333374 C 2196.06665 1929.93335 2196.333252 1889.666626 2195.533447 1854.333374 C 2195 1824.199951 2194.600098 1797.400024 2194.600098 1794.599976 C 2194.600098 1791.93335 2194.733398 1768.466675 2194.866699 1742.466675 C 2195.133301 1701.666748 2195.533447 1693.800049 2197.666748 1684.866699 C 2200.466553 1672.733398 2199.800049 1669.93335 2193.266602 1665.800049 C 2189.399902 1663.400024 2186.06665 1662.866699 2170.866699 1662.466675 C 2161 1662.199951 2145.533447 1662.333252 2136.333252 1663 Z"/>
        <path id="path7" fill="#919191" stroke="none" d="M 353 1664.333252 C 344.200012 1664.866699 330.066681 1665.400024 321.533325 1665.533325 C 311.133331 1665.666748 305.399994 1666.199951 303.799988 1667.400024 C 302.200012 1668.599976 300.466675 1673.266602 298.866669 1680.466675 C 296.066681 1693 295.533325 1727.800049 297.666656 1748.333252 C 300.733337 1776.06665 300.866669 1786.599976 298.466675 1793 C 294.333344 1803.666748 285.266663 1805.800049 274.333344 1798.866699 C 270.600006 1796.599976 265.533325 1793.93335 262.866669 1793 C 260.333344 1792.06665 254.866669 1789.533325 250.866669 1787.533325 L 243.666656 1783.666748 L 194.333344 1783.666748 L 145 1783.666748 L 137.666672 1787.133301 C 133.666672 1789.133301 127.933334 1791.400024 125.133331 1792.333252 C 122.199997 1793.266602 117.933334 1795.133301 115.666672 1796.599976 C 113.266663 1797.93335 107.800003 1800.466675 103.53334 1802.199951 C 90.866669 1807.133301 73.933334 1819 59.666672 1833.133301 C 44.333336 1848.199951 34.866669 1860.866699 25.26667 1879 C 21.666664 1885.93335 17 1894.333374 14.866669 1897.666626 C 11.933334 1902.333374 10.73333 1906.599976 9.666664 1916.199951 C 8.73333 1923.133301 6.866669 1932.466675 5.400002 1936.866699 C -0.466667 1954.599976 -0.73333 2002.06665 5 2023.666626 C 6.199997 2028.06665 8.066666 2038.733398 9.133331 2047.533325 C 10.466667 2058.199951 11.933334 2064.466797 13.533333 2066.866699 C 14.866669 2068.733398 17.933334 2074.199951 20.333336 2079 C 24.866669 2088.06665 47.533333 2116.333252 50.333336 2116.333252 C 51.133331 2116.333252 54.466667 2119.266602 57.53334 2123 C 60.733337 2126.733398 67.133331 2131.93335 72.333328 2135 C 77.399994 2137.93335 81.800003 2140.866699 82.333328 2141.533447 C 83.399994 2143.399902 97.399994 2151.133301 106.866669 2155.266602 C 111.53334 2157.266602 116.333328 2159.800049 117.53334 2160.733398 C 118.733337 2161.800049 121.133331 2163.133301 123 2163.666748 C 124.866669 2164.199951 130.866669 2166.866699 136.333328 2169.533447 L 146.333328 2174.333252 L 194.333344 2174.333252 L 242.333344 2174.333252 L 251.666656 2170.199951 C 256.866669 2167.800049 264.466675 2165 268.733337 2163.800049 C 272.866669 2162.600098 279.399994 2159.800049 283.133331 2157.666748 C 286.733337 2155.399902 290.200012 2153.666748 290.733337 2153.666748 C 291.399994 2153.666748 294.333344 2151.800049 297.399994 2149.533447 C 306.333344 2143 315.133331 2142.733398 322.600006 2148.733398 C 324.600006 2150.466553 330.066681 2153.266602 334.600006 2154.866699 C 339.133331 2156.600098 343.799988 2159 345 2160.333252 C 347.666656 2163.266602 349.933319 2163.93335 364.466675 2165.533447 C 370.733337 2166.199951 378.200012 2167.93335 380.866669 2169.266602 L 385.933319 2171.666748 L 389.133331 2167.93335 C 393.799988 2162.600098 394.333344 2158.733398 392.600006 2143.666748 C 391.399994 2134.06665 391 2067.133301 391 1899.666626 L 391.133331 1669 L 387.666656 1665.93335 C 383.799988 1662.733398 383 1662.599976 353 1664.333252 Z M 211 1856.733398 C 213.533325 1858.06665 221.933319 1860.599976 229.533325 1862.466675 C 244.866669 1866.06665 250.733337 1869.133301 264.866669 1881 C 281.933319 1895.533325 290.066681 1911.800049 293.533325 1939 C 296.333344 1961.400024 296.333344 1999.800049 293.399994 2023 C 291.133331 2040.06665 290.733337 2041.666626 284.066681 2054.733398 C 275.799988 2071 271 2077 261.133331 2083.533203 C 257 2086.199951 253.399994 2089 253 2089.666748 C 252.600006 2090.333252 249 2092.06665 244.866669 2093.666748 C 240.733337 2095.133301 235.266663 2098.06665 232.600006 2100.06665 L 227.933319 2103.666748 L 192.333344 2103.666748 L 156.733337 2103.666748 L 151.933334 2099.93335 C 149.133331 2097.800049 143.800003 2094.733398 139.933334 2093.133301 C 130.199997 2088.733398 113.53334 2070.733398 104.600006 2055 C 92.066666 2032.733398 85.53334 1970.199951 93.53334 1950.06665 C 95 1946.199951 97.133331 1937.266602 98.333328 1930.199951 C 101.266663 1912.199951 108.066666 1898.466675 120.600006 1885.93335 C 125.800003 1880.733398 132.199997 1875.400024 134.866669 1874.199951 C 137.53334 1873 141.666672 1870.199951 144.066666 1868.199951 C 146.333328 1866.06665 151.800003 1863.400024 156.066666 1862.333374 C 164.199997 1860.06665 168.866669 1858.466675 176.333328 1855.533325 C 183.133331 1852.866699 204.866669 1853.533325 211 1856.733398 Z"/>
        <path id="path8" fill="#919191" stroke="none" d="M 721.666687 1782.866699 C 698.599976 1783.666748 696.733337 1783.93335 693.133362 1786.733398 C 691 1788.333252 685.93335 1790.733398 681.799988 1791.93335 C 677.666687 1793 672.200012 1795.800049 669.666687 1797.800049 C 667.133362 1799.93335 664.333313 1801.666748 663.266663 1801.666748 C 660.733337 1801.666748 635.400024 1815.133301 627 1821 C 623 1823.800049 616.599976 1828.866699 612.866638 1832.199951 C 609.133362 1835.533325 603.133362 1841.133301 599.400024 1844.466675 C 579.93335 1862.199951 569.266663 1880.599976 564.333313 1905.400024 C 562.866638 1912.733398 560.733337 1921.133301 559.799988 1924.06665 C 553.266663 1942.333374 553.533325 2029.93335 560.06665 2044.333374 C 561.666687 2047.666626 563.533325 2054.466797 564.333313 2059.533203 C 565.266663 2065.533203 567.93335 2073.266602 572.06665 2081.533203 C 577.799988 2093.533447 579.533325 2095.533447 598.200012 2114.06665 C 610.599976 2126.333252 621.666687 2135.93335 627 2139.133301 C 631.799988 2142.06665 638.733337 2146.333252 642.333313 2148.600098 C 646.06665 2150.866699 652.866638 2154.199951 657.666687 2155.93335 C 662.466675 2157.666748 667.533325 2159.93335 669.133362 2161 C 670.733337 2161.93335 676.06665 2164.333252 681.133362 2166.06665 C 686.200012 2167.93335 693 2170.466553 696.333313 2171.800049 C 701.666687 2174.06665 707 2174.333252 741.799988 2174.733398 C 784.200012 2175.133301 785 2175.133301 807.666687 2167.533447 C 822.06665 2162.866699 843.133362 2154.199951 853.533325 2148.733398 C 865.266663 2142.733398 870.200012 2142.866699 880.200012 2149.666748 C 884.466675 2152.600098 888.466675 2155 889 2155 C 889.666687 2155 893 2156.866699 896.466675 2159.133301 C 903.400024 2163.533447 920.06665 2168.333252 928.599976 2168.333252 C 936.200012 2168.333252 941 2164.466553 943.799988 2156.06665 C 945.799988 2150.06665 945.93335 2146.199951 944.866638 2123.133301 C 944.200012 2108.733398 943.93335 2082.333252 944.200012 2064.333252 C 944.466675 2039.400024 944.06665 2028.333374 942.466675 2017.666626 C 941.400024 2009.93335 939.799988 1989.533325 939 1972.333374 C 937.400024 1935.666626 936.200012 1926.466675 931.799988 1915.666626 C 930.06665 1911.266602 927.93335 1904.199951 927.133362 1899.800049 C 926.333313 1895.533325 924.599976 1890.199951 923.133362 1887.800049 C 921.666687 1885.533325 919.266663 1880.333374 917.799988 1876.333374 C 916.200012 1872.199951 912.200012 1865.266602 908.733337 1860.866699 C 905.133362 1856.599976 900.599976 1850.466675 898.599976 1847.533325 C 896.599976 1844.466675 891.799988 1839.666626 888.200012 1836.866699 C 884.466675 1833.93335 877.666687 1828.333252 872.866638 1824.199951 C 867.266663 1819.266602 859.133362 1814.06665 849.133362 1809.133301 C 840.733337 1805 833.266663 1801.666748 832.466675 1801.666748 C 831.799988 1801.666748 829.533325 1800.199951 827.400024 1798.466675 C 822.599976 1794.466675 801.400024 1784.599976 795.93335 1783.800049 C 788.06665 1782.599976 746.599976 1782.06665 721.666687 1782.866699 Z M 784.06665 1861.666626 C 792.466675 1864.599976 802.06665 1868.866699 805.400024 1871.266602 C 813.266663 1876.466675 823.533325 1886.199951 827.799988 1892.333374 C 829.666687 1894.866699 832.466675 1898.866699 834.200012 1901.266602 C 835.93335 1903.666626 837.666687 1907.93335 838.200012 1911 C 838.599976 1914.06665 840.866638 1919.666626 843.133362 1923.666626 L 847.133362 1930.866699 L 847.266663 1981.266602 C 847.266663 2029.533325 846.733337 2037.400024 843.133362 2039.533325 C 842.466675 2039.93335 840.866638 2043.266602 839.533325 2046.733398 C 835.666687 2057.133301 824.06665 2076.466797 820.333313 2078.733398 C 818.466675 2079.800049 812.200012 2083.93335 806.333313 2087.93335 C 800.466675 2091.800049 795 2095 794.333313 2095 C 793.666687 2095 791.666687 2096.466553 789.799988 2098.199951 C 783.799988 2103.666748 779.133362 2104.333252 745.400024 2104.333252 C 712.333313 2104.333252 707.400024 2103.666748 703.133362 2098.466553 C 702.06665 2097.133301 697.666687 2094.333252 693.266663 2092.199951 C 681.266663 2086.06665 661.93335 2065.800049 656.866638 2053.93335 C 655 2049.666748 651.666687 2042.733398 649.266663 2038.333374 L 645 2030.333374 L 644.599976 1993.800049 C 644.06665 1950.199951 645.400024 1934.466675 650.866638 1921.93335 C 653 1917 655 1911.400024 655.533325 1909.533325 C 656.599976 1904.599976 664.733337 1893 672.866638 1884.599976 C 679.666687 1877.400024 685.799988 1873.400024 692.599976 1871.800049 C 694.466675 1871.400024 697.93335 1869.533325 700.200012 1867.666626 C 702.733337 1865.400024 706.866638 1863.800049 711.666687 1863 C 715.799988 1862.333374 724.599976 1860.333374 731.400024 1858.466675 C 738.200012 1856.599976 745.799988 1855 748.333313 1854.733398 C 757.266663 1853.93335 769.133362 1856.199951 784.06665 1861.666626 Z"/>
        <path id="path9" fill="#919191" stroke="none" d="M 1134.333374 1783 C 1112.333374 1783.800049 1111.400024 1783.93335 1103 1788.06665 C 1098.199951 1790.466675 1093.400024 1792.333252 1092.199951 1792.333252 C 1091 1792.333252 1087 1794.333252 1083.533325 1796.733398 C 1079.93335 1799.266602 1073.666626 1802.866699 1069.666626 1804.866699 C 1042.199951 1818.466675 1037.266724 1822.06665 1010.06665 1849.133301 C 1000.599976 1858.333374 995.533325 1864.599976 993.666626 1869 C 992.199951 1872.466675 989.666626 1877.133301 988.199951 1879.266602 C 986.599976 1881.400024 984.199951 1886.599976 983 1890.866699 C 981.666626 1895 979.266724 1901 977.666626 1904.06665 C 976.06665 1907.133301 974.199951 1913.666626 973.400024 1918.599976 C 972.733276 1923.533325 970.866699 1934.199951 969.400024 1942.333374 C 965.800049 1961.93335 965.533325 2005.400024 969 2019.666626 C 970.199951 2024.733398 972.06665 2034.866699 973.133301 2042.06665 C 974.599976 2052.733398 975.93335 2056.866699 980.599976 2065.399902 C 983.666626 2071 987.533325 2077.399902 989.133301 2079.666748 C 990.733276 2081.800049 992.599976 2085.399902 993.133301 2087.533447 C 993.93335 2090.866699 1007 2107 1022.599976 2123.93335 C 1025.400024 2126.866699 1031.533325 2131.399902 1036.333374 2133.93335 C 1041.133301 2136.466553 1050.06665 2141.666748 1056.333374 2145.666748 C 1062.599976 2149.533447 1069.533325 2153.533447 1071.93335 2154.466553 C 1074.333374 2155.533447 1079 2158.06665 1082.466675 2160.333252 C 1085.93335 2162.466553 1091.400024 2164.600098 1094.866699 2165.133301 C 1098.199951 2165.533447 1105.266724 2167.800049 1110.333374 2170.199951 L 1119.666626 2174.333252 L 1163 2174.333252 L 1206.333374 2174.333252 L 1214.466675 2170.06665 C 1220.733276 2166.733398 1225.266724 2165.533447 1235.533325 2164.466553 C 1242.733276 2163.666748 1251.400024 2162.333252 1254.599976 2161.399902 C 1260.06665 2160.06665 1260.866699 2160.199951 1263.400024 2162.866699 C 1267.666626 2167.133301 1267.266724 2180.466553 1262.466675 2189.266602 C 1260.599976 2192.733398 1258.466675 2198.199951 1257.666626 2201.266602 C 1256.599976 2205.666748 1253.266724 2209.800049 1241.93335 2221.399902 C 1233.800049 2229.666748 1225 2237.266602 1221.666626 2239 C 1218.333374 2240.600098 1213.800049 2243.399902 1211.400024 2245.133301 C 1209 2247 1203 2249.266602 1197.400024 2250.333252 C 1192.06665 2251.533447 1183.533325 2254.06665 1178.333374 2256.06665 C 1169.400024 2259.533447 1167.93335 2259.666748 1145 2259.666748 C 1121.666626 2259.666748 1120.866699 2259.533447 1114.333374 2256.199951 C 1110.733276 2254.333252 1103.800049 2251.399902 1099 2249.800049 C 1091.666626 2247.399902 1088.333374 2245.133301 1077.400024 2235 C 1067.93335 2226.333252 1062.866699 2222.733398 1058.866699 2221.666748 C 1051.400024 2219.666748 1028.866699 2219.533447 1023 2221.399902 C 1018.333374 2223 1005.93335 2234.466553 1003.266724 2239.800049 C 1000.599976 2244.733398 999.800049 2256.866699 1001.666626 2262.466553 C 1005 2272.600098 1026.599976 2291.93335 1043.133301 2299.666748 C 1046.866699 2301.266602 1051.133301 2303.93335 1052.733276 2305.399902 C 1054.333374 2307 1060.199951 2310.06665 1065.666626 2312.333252 C 1071.133301 2314.733398 1076.733276 2317.399902 1078.333374 2318.333252 C 1079.800049 2319.266602 1084.599976 2320.466553 1089 2321 C 1093.666626 2321.533447 1100.599976 2323.666748 1105.666626 2326.06665 L 1114.333374 2330.333252 L 1157.666626 2330.333252 L 1201 2330.333252 L 1209.800049 2326.06665 C 1214.599976 2323.666748 1221.533325 2321.266602 1225.133301 2320.866699 C 1232.466675 2319.800049 1254.599976 2309.666748 1258.333374 2305.666748 C 1259.533325 2304.333252 1263.533325 2302.06665 1267.133301 2301 C 1270.866699 2299.800049 1275.400024 2297.399902 1277.400024 2295.666748 C 1279.400024 2294.06665 1284.599976 2290.466553 1289 2287.533447 C 1300.06665 2280.466553 1309.800049 2271 1319.533325 2257.666748 C 1330.733276 2242.199951 1337.93335 2229.666748 1343 2217 C 1345.266724 2211.133301 1348.333374 2203.266602 1349.93335 2199.666748 C 1356.466675 2183.666748 1356.599976 2182.866699 1357.800049 2079 C 1359.133301 1963.133301 1357.800049 1935 1350.466675 1922.333374 C 1348.733276 1919.400024 1346.599976 1913.533325 1345.666626 1909.266602 C 1343.800049 1900.06665 1341.533325 1894.599976 1334.599976 1883.533325 C 1331.93335 1879 1328.733276 1872.733398 1327.666626 1869.533325 C 1326.466675 1866.333374 1323.800049 1861.93335 1321.800049 1859.666626 C 1319.666626 1857.533325 1317 1853.666626 1315.666626 1851.133301 C 1312.466675 1844.733398 1292.466675 1825.400024 1281.266724 1817.93335 C 1275.93335 1814.333252 1265.93335 1808.599976 1259 1805 C 1252.06665 1801.533325 1245 1797.666748 1243.400024 1796.333252 C 1241.800049 1795 1235.266724 1791.800049 1228.866699 1789 C 1217.666626 1784.199951 1216.333374 1784.06665 1195.800049 1782.866699 C 1172.866699 1781.666748 1169.400024 1781.666748 1134.333374 1783 Z M 1193.666626 1861.266602 C 1207.266724 1865.266602 1213.93335 1868.06665 1221 1872.599976 C 1232.466675 1880.06665 1243.400024 1891.400024 1245.666626 1898.333374 C 1246.599976 1901.266602 1248.866699 1905.93335 1250.599976 1908.733398 C 1255 1915.800049 1255.93335 1918.599976 1257.533325 1929.93335 C 1258.333374 1935.266602 1260.199951 1942.733398 1261.800049 1946.333374 C 1264.466675 1952.199951 1264.866699 1955.800049 1265.400024 1977 C 1265.800049 1995.533325 1265.400024 2002.866699 1263.93335 2009 C 1262.733276 2013.400024 1260.866699 2020.866699 1259.666626 2025.666626 C 1258.466675 2030.466675 1257 2038.733398 1256.333374 2043.93335 C 1255.533325 2051.666748 1254.466675 2054.600098 1251.533325 2058.199951 C 1249.400024 2060.733398 1246.199951 2065.266602 1244.333374 2068.333252 C 1239 2077.266602 1227.93335 2087.666748 1218.733276 2092.333252 C 1214.199951 2094.733398 1207 2098.333252 1202.866699 2100.466553 L 1195.533325 2104.466553 L 1162.599976 2104.466553 C 1127.400024 2104.466553 1121.133301 2103.93335 1117 2100.333252 C 1115.533325 2099.133301 1110.466675 2095.800049 1105.666626 2093 C 1092.06665 2084.866699 1073.666626 2066.06665 1073.666626 2060.199951 C 1073.666626 2059.399902 1072.199951 2055.800049 1070.333374 2052.199951 C 1065.800049 2042.866699 1064.733276 2038.199951 1062.333374 2016.333374 C 1059.800049 1992.333374 1059.800049 1976.733398 1062.333374 1953.666626 C 1063.400024 1943.800049 1064.333374 1932.599976 1064.333374 1928.866699 C 1064.333374 1924.333374 1065.400024 1920.06665 1067.400024 1916.199951 C 1069.133301 1913 1071.666626 1907.133301 1073 1903.133301 C 1074.866699 1897.533325 1077.400024 1894.06665 1084.866699 1886.733398 C 1090.06665 1881.666626 1097.400024 1875.93335 1101 1874.06665 C 1104.733276 1872.199951 1109.133301 1869.266602 1111 1867.533325 C 1113.133301 1865.533325 1117.800049 1863.666626 1123.800049 1862.466675 C 1128.866699 1861.400024 1136.06665 1859.400024 1139.800049 1858.199951 C 1155.266724 1852.866699 1167 1853.533325 1193.666626 1861.266602 Z"/>
        <path id="path10" fill="#919191" stroke="none" d="M 1574.333374 1783 C 1540.199951 1783.666748 1536.466675 1784.06665 1530.866699 1786.599976 C 1527.533325 1788.06665 1520.06665 1790.733398 1514.333374 1792.199951 C 1507.266724 1794.199951 1499.533325 1797.800049 1490.599976 1803.266602 C 1478.06665 1810.866699 1476.599976 1811.533325 1467.400024 1812.06665 C 1457.93335 1812.733398 1457.400024 1812.599976 1443.666626 1805.800049 C 1434.466675 1801.266602 1428.06665 1797.133301 1424.733276 1793.533325 C 1416.199951 1784.333252 1408.599976 1782.06665 1400.333374 1786.333252 C 1391.800049 1790.733398 1392.333374 1778.333252 1392.06665 1978.06665 C 1391.93335 2115.533447 1392.333374 2160.466553 1393.533325 2162.733398 C 1397 2169.133301 1403.93335 2171 1430.06665 2172.333252 C 1476.466675 2174.733398 1484.333374 2171.533447 1484.333374 2149.800049 C 1484.333374 2145.399902 1485.266724 2135.800049 1486.466675 2128.600098 C 1488.733276 2113.666748 1488.466675 2084.333252 1485.800049 2050.333252 C 1484.733276 2037.666626 1484.333374 2016.06665 1484.733276 1991.666626 C 1485.400024 1952.333374 1485.533325 1951.666626 1491.93335 1925.666626 C 1494.466675 1915.266602 1500.466675 1903 1509.266724 1890.333374 C 1515.400024 1881.266602 1516.199951 1880.733398 1531 1873.266602 C 1556.466675 1860.466675 1574.199951 1858.466675 1616.333374 1863.266602 C 1627 1864.466675 1630.466675 1865.533325 1638.466675 1869.800049 C 1653 1877.800049 1663.533325 1876.733398 1680.199951 1865.800049 C 1689.800049 1859.533325 1694.866699 1851.800049 1700.866699 1834.333374 C 1705.800049 1819.93335 1705.800049 1819.800049 1703.266724 1816.466675 C 1700.06665 1811.93335 1692.866699 1807.93335 1680.333374 1803.666748 C 1674.866699 1801.666748 1667.666626 1798.466675 1664.333374 1796.333252 C 1661 1794.333252 1655.93335 1791.93335 1653 1791 C 1650.06665 1790.06665 1647 1788.866699 1646.199951 1788.199951 C 1642.733276 1785.400024 1632.733276 1783.133301 1622.599976 1782.599976 C 1616.599976 1782.466675 1594.866699 1782.599976 1574.333374 1783 Z"/>
        <path id="path11" fill="#919191" stroke="none" d="M 1840.333374 1783 C 1817.266724 1784.599976 1803.266724 1790.199951 1769 1811.133301 C 1765.400024 1813.400024 1758.466675 1818.599976 1753.533325 1822.733398 C 1748.599976 1827 1741 1833.266602 1736.466675 1836.866699 C 1731.93335 1840.466675 1726.599976 1845.533325 1724.599976 1848.199951 C 1722.599976 1850.866699 1718.199951 1856.333374 1714.733276 1860.333374 C 1711.266724 1864.466675 1706.733276 1871.93335 1704.599976 1877 C 1702.466675 1882.199951 1699.133301 1888.733398 1697.266724 1891.533325 C 1695.266724 1894.333374 1693.666626 1897.533325 1693.666626 1898.599976 C 1693.666626 1899.533325 1691.533325 1905.800049 1689 1912.333374 C 1686.06665 1919.800049 1684.333374 1926.599976 1684.333374 1930.333374 C 1684.333374 1933.666626 1683.133301 1939.800049 1681.666626 1944.06665 C 1677.266724 1956.199951 1675.666626 1977 1677.400024 1997.133301 C 1678.866699 2014.599976 1684.733276 2042.466675 1689.666626 2055.266602 C 1693.533325 2065.266602 1705.133301 2087.666748 1711.133301 2096.333252 C 1717.800049 2106.333252 1735.666626 2125.266602 1740.866699 2127.93335 C 1743.133301 2129.133301 1748.06665 2132.866699 1751.800049 2136.199951 C 1755.533325 2139.533447 1760.599976 2143.266602 1763.133301 2144.466553 C 1765.666626 2145.666748 1776.333374 2150.866699 1787 2156.06665 C 1797.666626 2161.133301 1808.733276 2165.800049 1811.666626 2166.333252 C 1814.599976 2166.866699 1820.333374 2168.866699 1824.333374 2170.733398 L 1831.666626 2174.333252 L 1875 2174.333252 L 1918.466675 2174.333252 L 1925.666626 2170.466553 C 1930.199951 2168.199951 1936.599976 2166.199951 1942.199951 2165.533447 C 1949.400024 2164.600098 1953 2163.266602 1958.333374 2159.666748 C 1962.06665 2157 1967.533325 2154.333252 1970.333374 2153.533447 C 1973.266724 2152.733398 1977.533447 2150.733398 1979.666748 2149.133301 C 1982.866699 2146.866699 1985.666748 2146.333252 1993.133301 2146.333252 C 2001.666748 2146.333252 2003.266602 2146.733398 2009.800049 2151 C 2013.800049 2153.533447 2021.399902 2157.800049 2026.866699 2160.600098 C 2036.600098 2165.666748 2036.733398 2165.666748 2052.866699 2165.666748 C 2064.199951 2165.666748 2069.93335 2165.133301 2071.533447 2163.93335 C 2073.666748 2162.333252 2073.93335 2159.266602 2074.06665 2129.533447 C 2074.333252 2078.600098 2071.399902 1975.133301 2069.133301 1957.666626 C 2068.06665 1949.266602 2067.133301 1939.266602 2067 1935.666626 C 2067 1931.93335 2065.666748 1925.666626 2064.199951 1921.666626 C 2062.733398 1917.666626 2060.333252 1910.06665 2058.866699 1905 C 2057.399902 1899.800049 2055 1893.800049 2053.533447 1891.666626 C 2052.199951 1889.400024 2050.06665 1885.533325 2048.866699 1883 C 2047.666748 1880.466675 2045 1876.333374 2042.866699 1873.800049 C 2040.733398 1871.133301 2039 1868.466675 2039 1867.800049 C 2039 1864.866699 2019.93335 1840.466675 2014.333252 1836.333374 C 2010.866699 1833.800049 2005 1828.866699 2001.133301 1825.533325 C 1997.399902 1822.06665 1992.199951 1818.333252 1989.666748 1817 C 1987.133301 1815.666748 1982.333252 1812.733398 1979 1810.333252 C 1969.93335 1803.93335 1948.333374 1792.866699 1942.866699 1791.800049 C 1940.06665 1791.400024 1936.466675 1789.800049 1934.733276 1788.466675 C 1933 1787 1929.133301 1785.266602 1926.333374 1784.466675 C 1919.400024 1782.599976 1859.93335 1781.533325 1840.333374 1783 Z M 1897.666626 1855.533325 C 1900.199951 1856.599976 1907.93335 1859.400024 1914.733276 1861.93335 C 1924.466675 1865.533325 1929.666626 1868.599976 1939.666626 1876.466675 C 1953.93335 1887.533325 1962.06665 1898.199951 1967.666626 1913.133301 C 1969.533325 1918.06665 1972.199951 1924.06665 1973.800049 1926.466675 C 1976.333252 1930.733398 1976.466553 1932.466675 1976.06665 1979.266602 L 1975.666748 2027.666626 L 1969.800049 2041.666626 C 1962.866699 2058.333252 1957.133301 2066.199951 1941 2081.133301 C 1932.199951 2089.399902 1927.266724 2092.866699 1922.333374 2094.466553 C 1918.733276 2095.800049 1912.333374 2098.333252 1908.333374 2100.199951 C 1901.266724 2103.533447 1899.93335 2103.666748 1874.333374 2104.06665 L 1847.666626 2104.466553 L 1840.06665 2100.466553 C 1835.800049 2098.199951 1831.666626 2096.333252 1830.733276 2096.333252 C 1829.800049 2096.333252 1826.199951 2095 1822.733276 2093.266602 C 1815.800049 2089.93335 1787.400024 2066.333252 1786.466675 2063.133301 C 1786.06665 2061.93335 1785.133301 2058.333252 1784.333374 2055 C 1783.400024 2051.666748 1781 2045.93335 1778.866699 2042.199951 L 1775.133301 2035.533325 L 1774.733276 1980.866699 L 1774.333374 1926.333374 L 1778.599976 1919.800049 C 1781 1916.333374 1783.800049 1910.333374 1784.866699 1906.466675 C 1786.733276 1900.466675 1788.733276 1897.93335 1801.800049 1885.666626 C 1821.666626 1867 1822.866699 1866.199951 1834.733276 1863.666626 C 1840.466675 1862.466675 1848.599976 1860.199951 1853 1858.733398 C 1868.199951 1853.666626 1888.866699 1852.199951 1897.666626 1855.533325 Z"/>
        <path id="path12" fill="#919191" stroke="none" d="M 431.266663 1785.133301 C 429.399994 1786.466675 429.266663 1807.93335 429.266663 1974.733398 C 429.266663 2150.199951 429.399994 2163 431.533325 2166.333252 C 432.733337 2168.199951 435.399994 2170.466553 437.399994 2171.133301 C 439.400024 2171.93335 452.466675 2172.866699 466.599976 2173.266602 C 511.266663 2174.600098 521.133362 2170.466553 524.200012 2148.733398 C 525.799988 2136.866699 526.599976 1805.800049 525 1797.266602 C 523.799988 1791.400024 518.200012 1786.06665 511.93335 1785.133301 C 502.866638 1783.533325 433.266663 1783.666748 431.266663 1785.133301 Z"/>
    </g>
</svg>
